<?xml version="1.0" encoding="UTF-8" standalone="no"?>
<!DOCTYPE svg PUBLIC "-//W3C//DTD SVG 1.1//EN" "http://www.w3.org/Graphics/SVG/1.1/DTD/svg11.dtd">
<svg width="100%" height="100%" viewBox="0 0 3067 188" version="1.1" xmlns="http://www.w3.org/2000/svg" xmlns:xlink="http://www.w3.org/1999/xlink" xml:space="preserve" xmlns:serif="http://www.serif.com/" style="fill-rule:evenodd;clip-rule:evenodd;stroke-linejoin:round;stroke-miterlimit:1.41421;">
    <g transform="matrix(4.16667,0,0,4.16667,0,0)">
        <g id="Contact-Details" serif:id="Contact Details">
            <g id="designsoul-email.com" serif:id="designsoul@email.com">
                <g transform="matrix(1,0,0,1,62.571,35.595)">
                    <path d="M7.854,-8.531L7.854,0L9.967,0L9.967,-18.958L7.854,-18.958L7.854,-10.427L3.196,-10.427L3.196,-18.958L1.083,-18.958L1.083,0L3.196,0L3.196,-8.531L7.854,-8.531Z" style="fill:rgb(165,165,165);fill-rule:nonzero;"/>
                </g>
                <g transform="matrix(1,0,0,1,75.246,35.595)">
                    <rect x="1.083" y="-18.958" width="2.112" height="18.958" style="fill:rgb(165,165,165);fill-rule:nonzero;"/>
                    <path d="M14.869,-19.906C8.152,-19.906 5.065,-14.246 5.065,-7.8C5.065,-2.221 7.664,1.435 13.623,1.435C15.519,1.435 17.252,1.11 18.904,-0.027L19.066,-1.896C17.36,-0.569 15.627,-0.19 13.731,-0.19C9.019,-0.19 6.879,-3.006 6.879,-7.692C6.879,-13.758 9.398,-18.254 14.814,-18.254C18.877,-18.254 20.637,-15.816 20.637,-12.052C20.664,-9.398 19.96,-5.417 17.875,-5.417C17.198,-5.417 17.008,-5.958 17.089,-6.581L17.902,-14.354L16.06,-14.354L15.871,-12.675C15.546,-13.812 14.76,-14.462 13.541,-14.462C11.537,-14.516 10.427,-12.973 10.183,-10.508L9.885,-7.8C9.642,-5.39 10.346,-3.683 12.377,-3.656C13.704,-3.629 14.625,-4.306 15.166,-5.498C15.248,-4.306 16.006,-3.656 17.306,-3.656C19.825,-3.656 22.262,-6.744 22.262,-12.106C22.262,-16.575 20.312,-19.906 14.869,-19.906ZM14.083,-12.621C15.275,-12.621 15.789,-11.727 15.654,-10.454L15.383,-7.854C15.221,-6.392 14.544,-5.417 13.298,-5.444C12.025,-5.471 11.592,-6.473 11.754,-7.881L11.998,-10.319C12.16,-11.781 12.837,-12.648 14.083,-12.621Z" style="fill:rgb(165,165,165);fill-rule:nonzero;"/>
                    <path d="M28.112,-19.148C25.214,-19.148 23.86,-17.252 23.86,-14.381L23.86,-4.577C23.86,-1.706 25.214,0.19 28.112,0.19C31.037,0.19 32.391,-1.706 32.391,-4.577L32.391,-10.156L28.437,-10.156L28.437,-8.26L30.387,-8.26L30.387,-4.469C30.387,-2.762 29.71,-1.733 28.166,-1.733C26.65,-1.733 25.946,-2.762 25.946,-4.469L25.946,-14.489C25.946,-16.196 26.65,-17.225 28.166,-17.225C29.71,-17.225 30.387,-16.196 30.387,-14.489L30.387,-12.756L32.391,-12.756L32.391,-14.381C32.391,-17.252 31.037,-19.148 28.112,-19.148Z" style="fill:rgb(165,165,165);fill-rule:nonzero;"/>
                    <path d="M36.508,-10.562L36.508,-17.035L42.195,-17.035L42.195,-18.958L34.395,-18.958L34.395,0L42.195,0L42.195,-1.923L36.508,-1.923L36.508,-8.667L41.139,-8.667L41.139,-10.562L36.508,-10.562Z" style="fill:rgb(165,165,165);fill-rule:nonzero;"/>
                    <path d="M46.014,-15.329L50.862,0L53.056,0L53.056,-18.958L51.187,-18.958L51.187,-5.254L46.799,-18.958L44.118,-18.958L44.118,0L46.014,0L46.014,-15.329Z" style="fill:rgb(165,165,165);fill-rule:nonzero;"/>
                    <path d="M55.06,-4.577C55.06,-1.706 56.495,0.19 59.393,0.19C62.318,0.19 63.753,-1.706 63.753,-4.577L63.753,-14.381C63.753,-17.279 62.318,-19.148 59.393,-19.148C56.495,-19.148 55.06,-17.279 55.06,-14.381L55.06,-4.577ZM57.145,-14.489C57.145,-16.196 57.876,-17.225 59.393,-17.225C60.937,-17.225 61.641,-16.196 61.641,-14.489L61.641,-4.469C61.641,-2.735 60.937,-1.733 59.393,-1.733C57.876,-1.733 57.145,-2.735 57.145,-4.469L57.145,-14.489Z" style="fill:rgb(165,165,165);fill-rule:nonzero;"/>
                    <path d="M65.758,-18.958L65.758,0L70.118,0C73.07,0 74.451,-1.598 74.451,-4.442L74.451,-6.04C74.451,-8.125 73.747,-9.587 71.905,-10.102C73.557,-10.617 74.126,-11.862 74.126,-13.866L74.126,-14.76C74.126,-17.55 72.962,-18.958 70.01,-18.958L65.758,-18.958ZM67.87,-10.914L67.87,-17.035L69.955,-17.035C71.472,-17.035 72.041,-16.223 72.041,-14.544L72.041,-13.433C72.041,-11.456 71.174,-10.914 69.495,-10.914L67.87,-10.914ZM67.87,-1.923L67.87,-8.992L69.712,-8.992C71.526,-8.992 72.366,-8.287 72.366,-6.175L72.366,-4.496C72.366,-2.735 71.662,-1.923 70.118,-1.923L67.87,-1.923Z" style="fill:rgb(165,165,165);fill-rule:nonzero;"/>
                    <rect x="76.374" y="-18.958" width="2.112" height="18.958" style="fill:rgb(165,165,165);fill-rule:nonzero;"/>
                    <path d="M85.474,0L85.474,-17.035L88.968,-17.035L88.968,-18.958L79.895,-18.958L79.895,-17.035L83.389,-17.035L83.389,0L85.474,0Z" style="fill:rgb(165,165,165);fill-rule:nonzero;"/>
                    <path d="M92.516,-10.562L92.516,-17.035L98.203,-17.035L98.203,-18.958L90.403,-18.958L90.403,0L98.203,0L98.203,-1.923L92.516,-1.923L92.516,-8.667L97.147,-8.667L97.147,-10.562L92.516,-10.562Z" style="fill:rgb(165,165,165);fill-rule:nonzero;"/>
                    <rect x="100.153" y="-2.627" width="2.031" height="2.627" style="fill:rgb(165,165,165);fill-rule:nonzero;"/>
                    <path d="M108.17,-19.148C105.272,-19.148 103.917,-17.252 103.917,-14.381L103.917,-4.577C103.917,-1.706 105.272,0.19 108.17,0.19C111.094,0.19 112.449,-1.706 112.449,-4.577L112.449,-6.933L110.444,-6.933L110.444,-4.469C110.444,-2.762 109.767,-1.733 108.224,-1.733C106.707,-1.733 106.003,-2.762 106.003,-4.469L106.003,-14.489C106.003,-16.196 106.707,-17.225 108.224,-17.225C109.767,-17.225 110.444,-16.196 110.444,-14.489L110.444,-12.675L112.449,-12.675L112.449,-14.381C112.449,-17.252 111.094,-19.148 108.17,-19.148Z" style="fill:rgb(165,165,165);fill-rule:nonzero;"/>
                    <path d="M114.209,-4.577C114.209,-1.706 115.644,0.19 118.542,0.19C121.467,0.19 122.903,-1.706 122.903,-4.577L122.903,-14.381C122.903,-17.279 121.467,-19.148 118.542,-19.148C115.644,-19.148 114.209,-17.279 114.209,-14.381L114.209,-4.577ZM116.294,-14.489C116.294,-16.196 117.026,-17.225 118.542,-17.225C120.086,-17.225 120.79,-16.196 120.79,-14.489L120.79,-4.469C120.79,-2.735 120.086,-1.733 118.542,-1.733C117.026,-1.733 116.294,-2.735 116.294,-4.469L116.294,-14.489Z" style="fill:rgb(165,165,165);fill-rule:nonzero;"/>
                    <path d="M134.9,-15.248L134.9,0L136.905,0L136.905,-18.958L133.953,-18.958L130.946,-3.819L127.832,-18.958L124.88,-18.958L124.88,0L126.721,0L126.721,-15.112L129.863,-0.027L131.894,-0.027L134.9,-15.248Z" style="fill:rgb(165,165,165);fill-rule:nonzero;"/>
                </g>
            </g>
            <g id="Icon-Set" serif:id="Icon Set">
                <path id="Address-Bg" serif:id="Address Bg" d="M271.599,0C284.017,0 294.084,10.067 294.084,22.484C294.084,34.902 284.017,44.968 271.599,44.968C259.182,44.968 249.115,34.902 249.115,22.484C249.115,10.067 259.182,0 271.599,0Z" style="fill:rgb(166,171,172);"/>
                <path id="Address" d="M271.548,6.484C265.482,6.484 260.548,11.233 260.548,17.069C260.548,19.42 262.108,23.252 265.316,28.785C267.586,32.699 269.819,35.962 269.912,36.099L271.548,38.484L273.183,36.099C273.277,35.962 275.509,32.699 277.779,28.785C280.988,23.252 282.548,19.42 282.548,17.069C282.548,11.233 277.613,6.484 271.548,6.484ZM271.548,22.484C268.399,22.484 265.846,20.028 265.846,16.997C265.846,13.967 268.399,11.511 271.548,11.511C274.697,11.511 277.249,13.967 277.249,16.997C277.249,20.028 274.697,22.484 271.548,22.484Z" style="fill:rgb(229,230,230);fill-rule:nonzero;"/>
                <path id="Email-Bg" serif:id="Email Bg" d="M22.484,0C34.902,0 44.968,10.066 44.968,22.484C44.968,34.902 34.902,44.968 22.484,44.968C10.067,44.968 0,34.902 0,22.484C0,10.066 10.067,0 22.484,0Z" style="fill:rgb(166,171,172);"/>
                <path id="Email" d="M33.18,11.534L10.938,11.534C9.522,11.534 8.372,12.666 8.372,14.061L8.372,30.907C8.372,32.303 9.522,33.434 10.938,33.434L33.18,33.434C34.597,33.434 35.746,32.303 35.746,30.907L35.746,14.061C35.746,12.666 34.597,11.534 33.18,11.534ZM32.593,30.907L24.99,23.015L22.059,25.959L19.128,23.014L11.524,30.907L10.019,30.907L18.556,22.441L16.17,20.044L10.282,14.13L11.468,14.13L15.929,18.111L22.059,23.581L28.189,18.111L32.65,14.13L33.836,14.13L27.948,20.044L25.562,22.441L34.099,30.907L32.593,30.907Z" style="fill:rgb(235,235,236);"/>
            </g>
        </g>
        <g id="Address-:-29-Barklay-Road--New-Street-Hall--Australia" serif:id="Address : 29 Barklay Road, New Street Hall, Australia">
            <g transform="matrix(1,0,0,1,312.265,33.866)">
                <path d="M5.173,-19.148C2.275,-19.148 0.921,-17.252 0.921,-14.381L0.921,-4.577C0.921,-1.706 2.275,0.19 5.173,0.19C8.098,0.19 9.452,-1.706 9.452,-4.577L9.452,-10.156L5.498,-10.156L5.498,-8.26L7.448,-8.26L7.448,-4.469C7.448,-2.762 6.771,-1.733 5.227,-1.733C3.71,-1.733 3.006,-2.762 3.006,-4.469L3.006,-14.489C3.006,-16.196 3.71,-17.225 5.227,-17.225C6.771,-17.225 7.448,-16.196 7.448,-14.489L7.448,-12.756L9.452,-12.756L9.452,-14.381C9.452,-17.252 8.098,-19.148 5.173,-19.148Z" style="fill:rgb(165,165,165);fill-rule:nonzero;"/>
            </g>
            <g transform="matrix(1,0,0,1,324.776,33.866)">
                <path d="M8.017,-3.819L8.748,0L10.86,0L7.231,-18.958L4.171,-18.958L0.542,0L2.492,0L3.223,-3.819L8.017,-3.819ZM5.579,-16.575L7.719,-5.633L3.494,-5.633L5.579,-16.575Z" style="fill:rgb(165,165,165);fill-rule:nonzero;"/>
                <path d="M20.041,0L20.041,-1.923L14.625,-1.923L14.625,-18.958L12.512,-18.958L12.512,0L20.041,0Z" style="fill:rgb(165,165,165);fill-rule:nonzero;"/>
                <rect x="21.639" y="-18.958" width="2.112" height="18.958" style="fill:rgb(165,165,165);fill-rule:nonzero;"/>
                <path d="M33.448,0L33.448,-1.923L28.031,-1.923L28.031,-18.958L25.918,-18.958L25.918,0L33.448,0Z" style="fill:rgb(165,165,165);fill-rule:nonzero;"/>
                <path d="M37.158,-10.562L37.158,-17.035L42.845,-17.035L42.845,-18.958L35.045,-18.958L35.045,0L42.845,0L42.845,-1.923L37.158,-1.923L37.158,-8.667L41.789,-8.667L41.789,-10.562L37.158,-10.562Z" style="fill:rgb(165,165,165);fill-rule:nonzero;"/>
                <path d="M44.633,-4.577C44.633,-1.706 46.068,0.19 48.966,0.19C51.891,0.19 53.326,-1.706 53.326,-4.577L53.326,-14.381C53.326,-17.279 51.891,-19.148 48.966,-19.148C46.068,-19.148 44.633,-17.279 44.633,-14.381L44.633,-4.577ZM46.718,-14.489C46.718,-16.196 47.449,-17.225 48.966,-17.225C50.51,-17.225 51.214,-16.196 51.214,-14.489L51.214,-4.469C51.214,-2.735 50.51,-1.733 48.966,-1.733C47.449,-1.733 46.718,-2.735 46.718,-4.469L46.718,-14.489Z" style="fill:rgb(165,165,165);fill-rule:nonzero;"/>
                <path d="M63.672,-19.148C60.774,-19.148 59.42,-17.279 59.42,-14.381L59.42,-13.514L61.397,-13.514L61.397,-14.489C61.397,-16.196 62.101,-17.252 63.618,-17.252C65.162,-17.252 65.839,-16.25 65.839,-14.3L65.839,-13.433C65.839,-11.781 64.972,-10.887 63.564,-10.833L62.318,-10.833L62.318,-8.937L63.455,-8.937C65.053,-8.883 65.839,-7.989 65.839,-6.121L65.839,-4.658C65.839,-2.735 65.162,-1.733 63.618,-1.733C62.101,-1.733 61.397,-2.762 61.397,-4.469L61.397,-5.904L59.42,-5.904L59.42,-4.604C59.42,-1.706 60.774,0.19 63.672,0.19C66.597,0.19 67.951,-1.706 67.951,-4.604L67.951,-6.067C67.951,-7.962 67.247,-9.398 65.649,-9.994C67.166,-10.562 67.951,-11.944 67.951,-13.894L67.951,-14.381C67.951,-17.279 66.597,-19.148 63.672,-19.148Z" style="fill:rgb(165,165,165);fill-rule:nonzero;"/>
                <path d="M69.847,-4.604C69.847,-1.706 71.282,0.19 74.18,0.19C77.105,0.19 78.541,-1.706 78.541,-4.604L78.541,-14.381C78.541,-17.279 77.105,-19.148 74.18,-19.148C71.282,-19.148 69.847,-17.279 69.847,-14.381L69.847,-4.604ZM71.932,-14.489C71.932,-16.223 72.664,-17.252 74.18,-17.252C75.724,-17.252 76.428,-16.223 76.428,-14.489L76.428,-4.469C76.428,-2.762 75.724,-1.733 74.18,-1.733C72.664,-1.733 71.932,-2.762 71.932,-4.469L71.932,-14.489Z" style="fill:rgb(165,165,165);fill-rule:nonzero;"/>
                <path d="M84.689,-19.148C81.791,-19.148 80.437,-17.279 80.437,-14.381L80.437,-13.514L82.414,-13.514L82.414,-14.489C82.414,-16.196 83.118,-17.252 84.634,-17.252C86.178,-17.252 86.855,-16.25 86.855,-14.3L86.855,-13.433C86.855,-11.781 85.989,-10.887 84.58,-10.833L83.334,-10.833L83.334,-8.937L84.472,-8.937C86.07,-8.883 86.855,-7.989 86.855,-6.121L86.855,-4.658C86.855,-2.735 86.178,-1.733 84.634,-1.733C83.118,-1.733 82.414,-2.762 82.414,-4.469L82.414,-5.904L80.437,-5.904L80.437,-4.604C80.437,-1.706 81.791,0.19 84.689,0.19C87.614,0.19 88.968,-1.706 88.968,-4.604L88.968,-6.067C88.968,-7.962 88.263,-9.398 86.666,-9.994C88.182,-10.562 88.968,-11.944 88.968,-13.894L88.968,-14.381C88.968,-17.279 87.614,-19.148 84.689,-19.148Z" style="fill:rgb(165,165,165);fill-rule:nonzero;"/>
                <path d="M91.27,2.383L92.136,2.383L93.193,-0.19L93.193,-2.627L91.161,-2.627L91.161,0L91.947,0L91.27,2.383Z" style="fill:rgb(165,165,165);fill-rule:nonzero;"/>
                <path d="M108.765,-3.819L108.765,-5.742L107.249,-5.742L107.249,-18.958L104.947,-18.958L99.07,-5.742L99.07,-3.819L105.19,-3.819L105.19,0L107.249,0L107.249,-3.819L108.765,-3.819ZM105.19,-15.004L105.19,-5.742L101.02,-5.742L105.19,-15.004Z" style="fill:rgb(165,165,165);fill-rule:nonzero;"/>
                <path d="M115.211,0L115.211,-17.035L118.705,-17.035L118.705,-18.958L109.632,-18.958L109.632,-17.035L113.126,-17.035L113.126,0L115.211,0Z" style="fill:rgb(165,165,165);fill-rule:nonzero;"/>
                <path d="M126.911,-8.531L126.911,0L129.023,0L129.023,-18.958L126.911,-18.958L126.911,-10.427L122.253,-10.427L122.253,-18.958L120.14,-18.958L120.14,0L122.253,0L122.253,-8.531L126.911,-8.531Z" style="fill:rgb(165,165,165);fill-rule:nonzero;"/>
                <path d="M137.5,-10.129L137.5,-17.035L142.917,-17.035L142.917,-18.958L135.388,-18.958L135.388,0L137.5,0L137.5,-8.206L141.861,-8.206L141.861,-10.129L137.5,-10.129Z" style="fill:rgb(165,165,165);fill-rule:nonzero;"/>
                <path d="M152.125,0L152.125,-1.923L146.709,-1.923L146.709,-18.958L144.596,-18.958L144.596,0L152.125,0Z" style="fill:rgb(165,165,165);fill-rule:nonzero;"/>
                <path d="M153.561,-4.577C153.561,-1.706 154.996,0.19 157.894,0.19C160.819,0.19 162.254,-1.706 162.254,-4.577L162.254,-14.381C162.254,-17.279 160.819,-19.148 157.894,-19.148C154.996,-19.148 153.561,-17.279 153.561,-14.381L153.561,-4.577ZM155.646,-14.489C155.646,-16.196 156.377,-17.225 157.894,-17.225C159.438,-17.225 160.142,-16.196 160.142,-14.489L160.142,-4.469C160.142,-2.735 159.438,-1.733 157.894,-1.733C156.377,-1.733 155.646,-2.735 155.646,-4.469L155.646,-14.489Z" style="fill:rgb(165,165,165);fill-rule:nonzero;"/>
                <path d="M164.096,-4.577C164.096,-1.706 165.531,0.19 168.429,0.19C171.354,0.19 172.79,-1.706 172.79,-4.577L172.79,-14.381C172.79,-17.279 171.354,-19.148 168.429,-19.148C165.531,-19.148 164.096,-17.279 164.096,-14.381L164.096,-4.577ZM166.181,-14.489C166.181,-16.196 166.913,-17.225 168.429,-17.225C169.973,-17.225 170.677,-16.196 170.677,-14.489L170.677,-4.469C170.677,-2.735 169.973,-1.733 168.429,-1.733C166.913,-1.733 166.181,-2.735 166.181,-4.469L166.181,-14.489Z" style="fill:rgb(165,165,165);fill-rule:nonzero;"/>
                <path d="M174.794,-18.958L174.794,0L176.906,0L176.906,-8.098L178.396,-8.098C180.156,-8.098 181.158,-7.421 181.158,-5.281L181.158,-2.302C181.158,-1.029 181.267,-0.542 181.51,0L183.65,0C183.298,-0.65 183.271,-1.435 183.271,-2.275L183.271,-5.227C183.271,-7.258 182.621,-8.667 180.887,-9.181C182.512,-9.696 183.244,-10.996 183.244,-13.081L183.244,-14.625C183.244,-17.441 181.998,-18.958 179.019,-18.958L174.794,-18.958ZM176.906,-10.021L176.906,-17.035L178.964,-17.035C180.535,-17.035 181.158,-16.141 181.158,-14.435L181.158,-12.621C181.158,-10.562 180.156,-10.021 178.477,-10.021L176.906,-10.021Z" style="fill:rgb(165,165,165);fill-rule:nonzero;"/>
                <path d="M189.662,-18.958L189.662,0L194.023,0C196.975,0 198.356,-1.598 198.356,-4.442L198.356,-6.04C198.356,-8.125 197.652,-9.587 195.81,-10.102C197.462,-10.617 198.031,-11.862 198.031,-13.866L198.031,-14.76C198.031,-17.55 196.866,-18.958 193.914,-18.958L189.662,-18.958ZM191.775,-10.914L191.775,-17.035L193.86,-17.035C195.377,-17.035 195.946,-16.223 195.946,-14.544L195.946,-13.433C195.946,-11.456 195.079,-10.914 193.4,-10.914L191.775,-10.914ZM191.775,-1.923L191.775,-8.992L193.616,-8.992C195.431,-8.992 196.271,-8.287 196.271,-6.175L196.271,-4.496C196.271,-2.735 195.566,-1.923 194.023,-1.923L191.775,-1.923Z" style="fill:rgb(165,165,165);fill-rule:nonzero;"/>
                <path d="M207.212,-3.819L207.943,0L210.056,0L206.427,-18.958L203.366,-18.958L199.737,0L201.687,0L202.418,-3.819L207.212,-3.819ZM204.775,-16.575L206.914,-5.633L202.689,-5.633L204.775,-16.575Z" style="fill:rgb(165,165,165);fill-rule:nonzero;"/>
                <path d="M211.708,-18.958L211.708,0L213.82,0L213.82,-8.098L215.31,-8.098C217.07,-8.098 218.072,-7.421 218.072,-5.281L218.072,-2.302C218.072,-1.029 218.181,-0.542 218.424,0L220.564,0C220.212,-0.65 220.185,-1.435 220.185,-2.275L220.185,-5.227C220.185,-7.258 219.535,-8.667 217.801,-9.181C219.426,-9.696 220.158,-10.996 220.158,-13.081L220.158,-14.625C220.158,-17.441 218.912,-18.958 215.933,-18.958L211.708,-18.958ZM213.82,-10.021L213.82,-17.035L215.879,-17.035C217.449,-17.035 218.072,-16.141 218.072,-14.435L218.072,-12.621C218.072,-10.562 217.07,-10.021 215.391,-10.021L213.82,-10.021Z" style="fill:rgb(165,165,165);fill-rule:nonzero;"/>
                <path d="M226.468,-19.148C223.57,-19.148 222.216,-17.252 222.216,-14.381L222.216,-4.577C222.216,-1.706 223.57,0.19 226.468,0.19C229.393,0.19 230.747,-1.706 230.747,-4.577L230.747,-6.933L228.743,-6.933L228.743,-4.469C228.743,-2.762 228.066,-1.733 226.522,-1.733C225.006,-1.733 224.301,-2.762 224.301,-4.469L224.301,-14.489C224.301,-16.196 225.006,-17.225 226.522,-17.225C228.066,-17.225 228.743,-16.196 228.743,-14.489L228.743,-12.675L230.747,-12.675L230.747,-14.381C230.747,-17.252 229.393,-19.148 226.468,-19.148Z" style="fill:rgb(165,165,165);fill-rule:nonzero;"/>
                <path d="M234.783,-10.562L234.783,-17.035L240.47,-17.035L240.47,-18.958L232.67,-18.958L232.67,0L240.47,0L240.47,-1.923L234.783,-1.923L234.783,-8.667L239.414,-8.667L239.414,-10.562L234.783,-10.562Z" style="fill:rgb(165,165,165);fill-rule:nonzero;"/>
                <path d="M249.949,0L249.949,-1.923L244.532,-1.923L244.532,-18.958L242.42,-18.958L242.42,0L249.949,0Z" style="fill:rgb(165,165,165);fill-rule:nonzero;"/>
                <path d="M251.384,-4.577C251.384,-1.706 252.82,0.19 255.718,0.19C258.643,0.19 260.078,-1.706 260.078,-4.577L260.078,-14.381C260.078,-17.279 258.643,-19.148 255.718,-19.148C252.82,-19.148 251.384,-17.279 251.384,-14.381L251.384,-4.577ZM253.47,-14.489C253.47,-16.196 254.201,-17.225 255.718,-17.225C257.261,-17.225 257.966,-16.196 257.966,-14.489L257.966,-4.469C257.966,-2.735 257.261,-1.733 255.718,-1.733C254.201,-1.733 253.47,-2.735 253.47,-4.469L253.47,-14.489Z" style="fill:rgb(165,165,165);fill-rule:nonzero;"/>
                <path d="M263.951,-15.329L268.799,0L270.992,0L270.992,-18.958L269.124,-18.958L269.124,-5.254L264.736,-18.958L262.055,-18.958L262.055,0L263.951,0L263.951,-15.329Z" style="fill:rgb(165,165,165);fill-rule:nonzero;"/>
                <path d="M280.092,-3.819L280.824,0L282.936,0L279.307,-18.958L276.247,-18.958L272.617,0L274.567,0L275.299,-3.819L280.092,-3.819ZM277.655,-16.575L279.794,-5.633L275.57,-5.633L277.655,-16.575Z" style="fill:rgb(165,165,165);fill-rule:nonzero;"/>
                <path d="M292.767,-19.148C289.924,-19.148 288.569,-17.333 288.569,-14.408C288.569,-9.073 294.907,-8.667 294.907,-4.442C294.907,-2.735 294.203,-1.733 292.686,-1.733C291.169,-1.733 290.465,-2.735 290.465,-4.442L290.465,-5.633L288.488,-5.633L288.488,-4.55C288.488,-1.679 289.842,0.19 292.74,0.19C295.638,0.19 297.019,-1.679 297.019,-4.55C297.019,-9.885 290.655,-10.292 290.655,-14.544C290.655,-16.223 291.305,-17.225 292.821,-17.225C294.338,-17.225 294.988,-16.223 294.988,-14.516L294.988,-13.894L296.992,-13.894L296.992,-14.408C296.992,-17.279 295.638,-19.148 292.767,-19.148Z" style="fill:rgb(165,165,165);fill-rule:nonzero;"/>
                <path d="M298.861,-18.958L298.861,0L300.973,0L300.973,-7.475L302.842,-7.475C305.848,-7.475 307.257,-9.046 307.257,-12.052L307.257,-14.327C307.257,-17.198 305.984,-18.958 303.005,-18.958L298.861,-18.958ZM300.973,-9.371L300.973,-17.035L303.005,-17.035C304.548,-17.035 305.171,-16.169 305.171,-14.435L305.171,-11.917C305.171,-10.102 304.413,-9.371 302.842,-9.371L300.973,-9.371Z" style="fill:rgb(165,165,165);fill-rule:nonzero;"/>
                <path d="M315.49,-3.819L316.221,0L318.334,0L314.704,-18.958L311.644,-18.958L308.015,0L309.965,0L310.696,-3.819L315.49,-3.819ZM313.052,-16.575L315.192,-5.633L310.967,-5.633L313.052,-16.575Z" style="fill:rgb(165,165,165);fill-rule:nonzero;"/>
                <rect x="319.986" y="-18.958" width="2.112" height="18.958" style="fill:rgb(165,165,165);fill-rule:nonzero;"/>
                <path d="M326.133,-15.329L330.981,0L333.175,0L333.175,-18.958L331.306,-18.958L331.306,-5.254L326.919,-18.958L324.238,-18.958L324.238,0L326.133,0L326.133,-15.329Z" style="fill:rgb(165,165,165);fill-rule:nonzero;"/>
            </g>
        </g>
    </g>
</svg>
