<?xml version="1.0" encoding="UTF-8" standalone="no"?><!DOCTYPE svg PUBLIC "-//W3C//DTD SVG 1.1//EN" "http://www.w3.org/Graphics/SVG/1.1/DTD/svg11.dtd"><svg width="100%" height="100%" viewBox="0 0 736 45" version="1.1" xmlns="http://www.w3.org/2000/svg" xmlns:xlink="http://www.w3.org/1999/xlink" xml:space="preserve" xmlns:serif="http://www.serif.com/" style="fill-rule:evenodd;clip-rule:evenodd;stroke-linejoin:round;stroke-miterlimit:1.41421;"><g id="Contact-Details" serif:id="Contact Details"><text id="designsoul-email.com" serif:id="designsoul@email.com" x="62.571px" y="35.595px" style="font-family:'BebasNeueRegular', 'Bebas Neue';font-size:27.083px;fill:#a5a5a5;">H<tspan x="75.246px 81.15px 101.436px 113.434px 124.809px 137.511px 149.671px 161.913px 167.817px 179.192px 190.567px 196.119px 208.036px 220.196px " y="35.595px 35.595px 35.595px 35.595px 35.595px 35.595px 35.595px 35.595px 35.595px 35.595px 35.595px 35.595px 35.595px 35.595px ">I@genobite.com</tspan></text><g id="Icon-Set" serif:id="Icon Set"><path id="Address-Bg" serif:id="Address Bg" d="M271.599,0c12.418,0 22.485,10.067 22.485,22.484c0,12.418 -10.067,22.484 -22.485,22.484c-12.417,0 -22.484,-10.066 -22.484,-22.484c0,-12.417 10.067,-22.484 22.484,-22.484Z" style="fill:#a6abac;"/><path id="Address" d="M271.548,6.484c-6.066,0 -11,4.749 -11,10.585c0,2.351 1.56,6.183 4.768,11.716c2.27,3.914 4.503,7.177 4.596,7.314l1.636,2.385l1.635,-2.385c0.094,-0.137 2.326,-3.4 4.596,-7.314c3.209,-5.533 4.769,-9.365 4.769,-11.716c0,-5.836 -4.935,-10.585 -11,-10.585Zm0,16c-3.149,0 -5.702,-2.456 -5.702,-5.487c0,-3.03 2.553,-5.486 5.702,-5.486c3.149,0 5.701,2.456 5.701,5.486c0,3.031 -2.552,5.487 -5.701,5.487Z" style="fill:#e5e6e6;fill-rule:nonzero;"/><path id="Email-Bg" serif:id="Email Bg" d="M22.484,0c12.418,0 22.484,10.066 22.484,22.484c0,12.418 -10.066,22.484 -22.484,22.484c-12.417,0 -22.484,-10.066 -22.484,-22.484c0,-12.418 10.067,-22.484 22.484,-22.484Z" style="fill:#a6abac;"/><path id="Email" d="M33.18,11.534l-22.242,0c-1.416,0 -2.566,1.132 -2.566,2.527l0,16.846c0,1.396 1.15,2.527 2.566,2.527l22.242,0c1.417,0 2.566,-1.131 2.566,-2.527l0,-16.846c0,-1.395 -1.149,-2.527 -2.566,-2.527Zm-0.587,19.373l-7.603,-7.892l-2.931,2.944l-2.931,-2.945l-7.604,7.893l-1.505,0l8.537,-8.466l-2.386,-2.397l-5.888,-5.914l1.186,0l4.461,3.981l6.13,5.47l6.13,-5.47l4.461,-3.981l1.186,0l-5.888,5.914l-2.386,2.397l8.537,8.466l-1.506,0Z" style="fill:#ebebec;"/></g></g><text id="Address-:-29-Barklay-Road--New-Street-Hall--Australia" serif:id="Address : 29 Barklay Road, New Street Hall, Australia" x="312.265px" y="33.866px" style="font-family:'BebasNeueRegular', 'Bebas Neue';font-size:27.083px;fill:#a5a5a5;">g<tspan x="324.776px 338.371px 349.663px 356.109px 367.401px 379.317px 392.018px 398.382px 411.029px 423.73px 436.376px 442.876px 449.24px 462.239px 474.154px 487.37px 493.734px 505.108px 516.4px 529.101px 541.802px 554.639px 561.003px 573.785px 587.379px 600.216px 612.673px 624.589px 635.881px 648.582px 661.825px 675.419px 681.783px 694.024px 705.885px 719.48px 725.925px " y="33.866px 33.866px 33.866px 33.866px 33.866px 33.866px 33.866px 33.866px 33.866px 33.866px 33.866px 33.866px 33.866px 33.866px 33.866px 33.866px 33.866px 33.866px 33.866px 33.866px 33.866px 33.866px 33.866px 33.866px 33.866px 33.866px 33.866px 33.866px 33.866px 33.866px 33.866px 33.866px 33.866px 33.866px 33.866px 33.866px 33.866px ">alileo 303, 4th floor barcelona spain</tspan></text></svg>