<?xml version="1.0" encoding="UTF-8" standalone="no"?><!DOCTYPE svg PUBLIC "-//W3C//DTD SVG 1.1//EN" "http://www.w3.org/Graphics/SVG/1.1/DTD/svg11.dtd"><svg width="100%" height="100%" viewBox="0 0 844 163" version="1.1" xmlns="http://www.w3.org/2000/svg" xmlns:xlink="http://www.w3.org/1999/xlink" xml:space="preserve" xmlns:serif="http://www.serif.com/" style="fill-rule:evenodd;clip-rule:evenodd;stroke-linejoin:round;stroke-miterlimit:1.41421;"><g id="lOGO"><g id="Text"><g id="Genobite-studios" serif:id="Genobite studios" transform="matrix(1.42865,0,0,1.41765,191.263,70.9141)"><text x="0px" y="0px" style="font-family:'Montserrat-Light', 'Montserrat';font-weight:300;font-size:49.362px;fill:#fbfbfb;">GENO</text><text x="152.725px" y="0px" style="font-family:'Montserrat-Regular', 'Montserrat';font-size:49.362px;fill:#fbfbfb;">BITE</text><text x="279.14px" y="0px" style="font-family:'Montserrat-Light', 'Montserrat';font-weight:300;font-size:49.362px;fill:#fbfbfb;">studios</text></g><text id="games-crafted-with-love" serif:id="games crafted with love" x="203.043px" y="118.994px" style="font-family:'Montserrat-Light', 'Montserrat';font-weight:300;font-size:32px;fill:#fbfbfb;">G<tspan x="240.484px 275.731px 319.073px 353.159px 385.311px 406.111px 441.713px 477.444px 512.692px 545.714px 576.382px 610.469px 649.618px 670.418px 717.856px 739.881px 770.549px " y="118.994px 118.994px 118.994px 118.994px 118.994px 118.994px 118.994px 118.994px 118.994px 118.994px 118.994px 118.994px 118.994px 118.994px 118.994px 118.994px 118.994px ">AMES CRAFTED WITH</tspan></text><path d="M819.93,93.602c-3.69,0 -6.694,3.942 -6.694,8.787c-0.257,9.054 11.987,17.736 14.344,19.322c2.338,-1.591 14.45,-10.275 14.193,-19.298c0.025,-2.708 -0.863,-5.206 -2.44,-6.885c-1.184,-1.26 -2.621,-1.926 -4.156,-1.926c-4.286,0 -6.845,2.581 -6.845,6.905l-1.5,0c0,-6.407 -5.282,-6.905 -6.902,-6.905m7.654,29.966l-0.388,-0.245c-0.644,-0.408 -15.768,-10.099 -15.46,-20.957c0,-5.694 3.676,-10.345 8.194,-10.345c3.666,0 6.4,1.718 7.649,4.595c1.242,-2.877 3.957,-4.595 7.598,-4.595c1.917,0 3.771,0.85 5.222,2.395c1.856,1.976 2.904,4.885 2.874,7.982c0.308,10.823 -14.665,20.515 -15.302,20.923l-0.387,0.247Z" style="fill:#519a80;fill-rule:nonzero;"/></g></g><g id="Genobite-logo" serif:id="Genobite logo"><path d="M90.496,151.365c0.992,0.992 0.992,2.596 0,3.588l-7.285,7.289c-0.993,0.988 -2.596,0.988 -3.587,-0.003l-7.288,-7.286c-0.991,-0.992 -0.991,-2.596 0,-3.588l7.288,-7.286c0.991,-0.988 2.594,-0.988 3.587,0l7.285,7.286Z" style="fill:#fbfbfb;fill-opacity:0.92549;fill-rule:nonzero;"/><path d="M108.434,133.429c0.987,0.99 0.987,2.598 0,3.587l-7.288,7.289c-0.989,0.991 -2.597,0.991 -3.589,0l-7.283,-7.289c-0.992,-0.989 -0.992,-2.597 0,-3.587l7.283,-7.286c0.992,-0.99 2.6,-0.99 3.589,0l7.288,7.286Z" style="fill:#fbfbfb;fill-opacity:0.92549;fill-rule:nonzero;"/><path d="M126.367,115.495c0.991,0.99 0.991,2.595 0,3.586l-7.283,7.286c-0.992,0.992 -2.598,0.992 -3.59,0l-7.283,-7.286c-0.992,-0.991 -0.992,-2.596 0,-3.586l7.283,-7.287c0.992,-0.991 2.598,-0.991 3.59,0l7.283,7.287Z" style="fill:#fbfbfb;fill-opacity:0.92549;fill-rule:nonzero;"/><path d="M144.304,97.558c0.992,0.991 0.992,2.597 0,3.589l-7.287,7.286c-0.99,0.989 -2.594,0.989 -3.585,0l-7.29,-7.286c-0.989,-0.992 -0.989,-2.598 0,-3.589l7.29,-7.287c0.989,-0.988 2.595,-0.988 3.585,0l7.287,7.287Z" style="fill:#fbfbfb;fill-opacity:0.92549;fill-rule:nonzero;"/><path d="M162.241,79.623c0.992,0.991 0.992,2.596 0,3.587l-7.289,7.286c-0.989,0.991 -2.596,0.991 -3.585,0l-7.288,-7.286c-0.987,-0.991 -0.987,-2.596 0,-3.587l7.288,-7.289c0.989,-0.989 2.596,-0.989 3.585,0l7.289,7.289Z" style="fill:#fbfbfb;fill-opacity:0.92549;fill-rule:nonzero;"/><path d="M18.902,79.774c0.991,0.988 0.991,2.594 0,3.586l-7.284,7.284c-0.991,0.991 -2.599,0.991 -3.589,0l-7.285,-7.284c-0.992,-0.992 -0.992,-2.598 0,-3.586l7.285,-7.288c0.99,-0.99 2.598,-0.99 3.589,0l7.284,7.288Z" style="fill:#fbfbfb;fill-opacity:0.92549;fill-rule:nonzero;"/><path d="M36.839,61.836c0.99,0.989 0.99,2.596 0,3.587l-7.285,7.287c-0.994,0.991 -2.598,0.991 -3.59,0l-7.283,-7.287c-0.993,-0.991 -0.993,-2.598 -0.002,-3.587l7.285,-7.286c0.992,-0.991 2.596,-0.991 3.59,0l7.285,7.286Z" style="fill:#fbfbfb;fill-opacity:0.92549;fill-rule:nonzero;"/><path d="M54.774,43.899c0.992,0.992 0.992,2.599 0,3.589l-7.285,7.287c-0.994,0.987 -2.598,0.987 -3.587,0l-7.288,-7.288c-0.993,-0.989 -0.993,-2.596 0,-3.588l7.288,-7.283c0.989,-0.992 2.593,-0.992 3.587,0l7.285,7.283Z" style="fill:#fbfbfb;fill-opacity:0.92549;fill-rule:nonzero;"/><path d="M72.713,25.965c0.988,0.988 0.988,2.596 0,3.586l-7.289,7.287c-0.991,0.989 -2.6,0.989 -3.585,0l-7.289,-7.287c-0.992,-0.99 -0.992,-2.598 0,-3.586l7.289,-7.286c0.985,-0.992 2.594,-0.992 3.585,0l7.289,7.286Z" style="fill:#fbfbfb;fill-opacity:0.92549;fill-rule:nonzero;"/><path d="M90.647,8.027c0.987,0.992 0.987,2.599 -0.002,3.588l-7.285,7.286c-0.99,0.991 -2.598,0.991 -3.59,0l-7.283,-7.286c-0.992,-0.989 -0.992,-2.596 0,-3.588l7.283,-7.286c0.992,-0.988 2.6,-0.988 3.59,0l7.287,7.286Z" style="fill:#519a80;fill-opacity:0.92549;fill-rule:nonzero;"/><path d="M72.561,133.429c0.992,0.99 0.992,2.598 0,3.587l-7.289,7.289c-0.988,0.991 -2.592,0.991 -3.584,0l-7.289,-7.289c-0.991,-0.989 -0.991,-2.597 0,-3.587l7.289,-7.286c0.992,-0.99 2.596,-0.99 3.584,0l7.289,7.286Z" style="fill:#fbfbfb;fill-opacity:0.92549;fill-rule:nonzero;"/><g><g opacity="0.699997"><g><g opacity="0.399994"><path d="M54.7,79.695c0.991,0.992 0.988,2.598 0,3.587l-7.289,7.289c-0.988,0.989 -2.594,0.989 -3.584,0l-7.289,-7.289c-0.989,-0.989 -0.989,-2.595 0,-3.587l7.289,-7.286c0.99,-0.988 2.596,-0.988 3.584,0l7.289,7.286Z" style="fill:#fbfbfb;fill-opacity:0.92549;fill-rule:nonzero;"/></g></g><g><g opacity="0.399994"><clipPath id="_clip1"><rect x="53.732" y="53.73" width="19.645" height="19.649"/></clipPath><g clip-path="url(#_clip1)"><path d="M72.637,61.761c0.986,0.991 0.986,2.596 0,3.587l-7.289,7.287c-0.991,0.99 -2.596,0.99 -3.587,0l-7.285,-7.287c-0.992,-0.991 -0.992,-2.596 0,-3.587l7.285,-7.286c0.991,-0.992 2.596,-0.992 3.587,0l7.289,7.286Z" style="fill:#fbfbfb;fill-opacity:0.92549;fill-rule:nonzero;"/></g></g></g><g><g opacity="0.399994"><clipPath id="_clip2"><rect x="71.669" y="35.797" width="19.644" height="19.645"/></clipPath><g clip-path="url(#_clip2)"><path d="M90.573,43.824c0.987,0.992 0.987,2.599 0,3.588l-7.288,7.286c-0.991,0.991 -2.597,0.991 -3.589,0l-7.283,-7.286c-0.992,-0.989 -0.992,-2.596 0,-3.588l7.283,-7.287c0.992,-0.988 2.598,-0.988 3.589,0l7.288,7.287Z" style="fill:#fbfbfb;fill-opacity:0.92549;fill-rule:nonzero;"/></g></g></g><g><g opacity="0.399994"><clipPath id="_clip3"><rect x="89.606" y="17.858" width="19.644" height="19.649"/></clipPath><g clip-path="url(#_clip3)"><path d="M108.506,25.89c0.992,0.991 0.992,2.596 0,3.587l-7.287,7.286c-0.988,0.989 -2.596,0.989 -3.586,0l-7.285,-7.286c-0.99,-0.991 -0.99,-2.596 0,-3.587l7.285,-7.289c0.99,-0.989 2.598,-0.989 3.586,0l7.287,7.289Z" style="fill:#fbfbfb;fill-opacity:0.92549;fill-rule:nonzero;"/></g></g></g><g><g opacity="0.399994"><clipPath id="_clip4"><rect x="71.593" y="107.465" width="19.647" height="19.644"/></clipPath><g clip-path="url(#_clip4)"><path d="M90.496,115.495c0.992,0.988 0.992,2.595 0,3.586l-7.285,7.286c-0.993,0.989 -2.596,0.989 -3.587,0l-7.288,-7.286c-0.991,-0.991 -0.991,-2.598 0,-3.586l7.288,-7.287c0.991,-0.991 2.594,-0.991 3.587,0l7.285,7.287Z" style="fill:#fbfbfb;fill-opacity:0.92549;fill-rule:nonzero;"/></g></g></g><g><g opacity="0.399994"><clipPath id="_clip5"><rect x="89.53" y="89.531" width="19.644" height="19.644"/></clipPath><g clip-path="url(#_clip5)"><path d="M108.434,97.558c0.987,0.991 0.987,2.597 0,3.589l-7.288,7.286c-0.989,0.989 -2.597,0.989 -3.589,0l-7.283,-7.286c-0.992,-0.992 -0.992,-2.598 0,-3.589l7.283,-7.287c0.992,-0.988 2.6,-0.988 3.589,0l7.288,7.287Z" style="fill:#fbfbfb;fill-opacity:0.92549;fill-rule:nonzero;"/></g></g></g><g><g opacity="0.399994"><clipPath id="_clip6"><rect x="107.467" y="71.594" width="19.643" height="19.645"/></clipPath><g clip-path="url(#_clip6)"><path d="M126.367,79.623c0.991,0.991 0.991,2.596 0,3.587l-7.283,7.286c-0.992,0.991 -2.598,0.991 -3.59,0l-7.283,-7.286c-0.992,-0.991 -0.992,-2.596 0,-3.587l7.283,-7.289c0.992,-0.989 2.598,-0.989 3.59,0l7.283,7.289Z" style="fill:#fbfbfb;fill-opacity:0.92549;fill-rule:nonzero;"/></g></g></g><g><g opacity="0.399994"><clipPath id="_clip7"><rect x="53.732" y="89.603" width="19.645" height="19.646"/></clipPath><g clip-path="url(#_clip7)"><path d="M72.637,97.635c0.986,0.986 0.986,2.593 0,3.584l-7.289,7.286c-0.991,0.992 -2.596,0.992 -3.587,0l-7.285,-7.283c-0.992,-0.994 -0.992,-2.601 0,-3.587l7.285,-7.289c0.991,-0.991 2.596,-0.991 3.587,0l7.289,7.289Z" style="fill:#fbfbfb;fill-opacity:0.92549;fill-rule:nonzero;"/></g></g></g></g></g><path d="M36.763,97.635c0.991,0.986 0.991,2.593 0,3.584l-7.286,7.286c-0.989,0.992 -2.595,0.992 -3.587,0l-7.289,-7.286c-0.986,-0.991 -0.986,-2.598 0.002,-3.584l7.287,-7.289c0.992,-0.991 2.598,-0.991 3.589,0l7.284,7.289Z" style="fill:#fbfbfb;fill-opacity:0.92549;fill-rule:nonzero;"/><path d="M54.7,115.57c0.988,0.989 0.988,2.595 0,3.586l-7.287,7.286c-0.99,0.989 -2.598,0.989 -3.586,0l-7.287,-7.286c-0.991,-0.991 -0.991,-2.597 0,-3.586l7.287,-7.287c0.988,-0.991 2.596,-0.991 3.586,0l7.287,7.287Z" style="fill:#fbfbfb;fill-opacity:0.92549;fill-rule:nonzero;"/><path d="M90.573,79.695c0.987,0.992 0.987,2.598 0,3.587l-7.288,7.289c-0.991,0.989 -2.597,0.989 -3.589,0l-7.283,-7.289c-0.992,-0.989 -0.992,-2.595 0,-3.587l7.283,-7.284c0.992,-0.99 2.598,-0.99 3.589,0l7.288,7.284Z" style="fill:#519a80;fill-opacity:0.92549;fill-rule:nonzero;"/><path d="M108.506,61.761c0.992,0.991 0.992,2.596 0,3.587l-7.287,7.287c-0.99,0.99 -2.596,0.99 -3.586,0l-7.285,-7.287c-0.99,-0.991 -0.99,-2.596 0,-3.587l7.285,-7.286c0.99,-0.992 2.598,-0.992 3.586,0l7.287,7.286Z" style="fill:#fbfbfb;fill-opacity:0.92549;fill-rule:nonzero;"/><path d="M144.304,61.686c0.992,0.992 0.992,2.596 0,3.586l-7.285,7.288c-0.992,0.99 -2.596,0.99 -3.587,0l-7.29,-7.288c-0.989,-0.99 -0.989,-2.594 0,-3.586l7.29,-7.286c0.991,-0.989 2.595,-0.989 3.587,0l7.285,7.286Z" style="fill:#fbfbfb;fill-opacity:0.92549;fill-rule:nonzero;"/><path d="M126.443,43.824c0.992,0.992 0.992,2.599 0,3.588l-7.289,7.286c-0.985,0.991 -2.592,0.991 -3.585,0l-7.286,-7.286c-0.991,-0.989 -0.991,-2.596 0,-3.588l7.286,-7.287c0.993,-0.988 2.6,-0.988 3.587,0l7.287,7.287Z" style="fill:#fbfbfb;fill-opacity:0.92549;fill-rule:nonzero;"/></g></svg>