<?xml version="1.0" encoding="UTF-8" standalone="no"?>
<!DOCTYPE svg PUBLIC "-//W3C//DTD SVG 1.1//EN" "http://www.w3.org/Graphics/SVG/1.1/DTD/svg11.dtd">
<svg width="100%" height="100%" viewBox="0 0 1050 600" version="1.1" xmlns="http://www.w3.org/2000/svg" xmlns:xlink="http://www.w3.org/1999/xlink" xml:space="preserve" style="fill-rule:evenodd;clip-rule:evenodd;stroke-linejoin:round;stroke-miterlimit:1.41421;">
    <g id="work" transform="matrix(1,0,0,1,-499,-724)">
        <g transform="matrix(0.512695,0,0,0.292969,499,724)">
            <rect x="0" y="0" width="2048" height="2048" style="fill:rgb(40,63,101);"/>
        </g>
        <g transform="matrix(0.382408,0,0,0.38012,691.683,1082.03)">
            <path d="M0,-9.917C2.738,-7.178 2.738,-2.747 0,-0.008L-20.122,20.124C-22.866,22.854 -27.292,22.854 -30.031,20.116L-50.158,-0.008C-52.896,-2.747 -52.896,-7.178 -50.158,-9.917L-30.031,-30.041C-27.292,-32.771 -22.866,-32.771 -20.122,-30.041L0,-9.917Z" style="fill:white;fill-rule:nonzero;"/>
        </g>
        <g transform="matrix(0.382408,0,0,0.38012,710.628,1063.2)">
            <path d="M0,-9.918C2.728,-7.183 2.728,-2.743 0,-0.012L-20.127,20.12C-22.86,22.858 -27.302,22.858 -30.041,20.12L-50.157,-0.012C-52.896,-2.743 -52.896,-7.183 -50.157,-9.918L-30.041,-30.043C-27.302,-32.776 -22.86,-32.776 -20.127,-30.043L0,-9.918Z" style="fill:white;fill-rule:nonzero;"/>
        </g>
        <g transform="matrix(0.382408,0,0,0.38012,729.569,1044.36)">
            <path d="M0,-9.906C2.739,-7.17 2.739,-2.739 0,0L-20.116,20.124C-22.854,22.863 -27.291,22.863 -30.03,20.124L-50.146,0C-52.885,-2.739 -52.885,-7.17 -50.146,-9.906L-30.03,-30.033C-27.291,-32.769 -22.854,-32.769 -20.116,-30.033L0,-9.906Z" style="fill:white;fill-rule:nonzero;"/>
        </g>
        <g transform="matrix(0.382408,0,0,0.38012,748.515,1025.53)">
            <path d="M0,-9.914C2.739,-7.175 2.739,-2.739 0,-0.001L-20.127,20.124C-22.861,22.855 -27.292,22.855 -30.03,20.124L-50.163,-0.001C-52.896,-2.739 -52.896,-7.175 -50.163,-9.914L-30.03,-30.039C-27.297,-32.769 -22.861,-32.769 -20.127,-30.039L0,-9.914Z" style="fill:white;fill-rule:nonzero;"/>
        </g>
        <g transform="matrix(0.382408,0,0,0.38012,767.46,1006.7)">
            <path d="M0,-9.906C2.738,-7.17 2.738,-2.736 0,0L-20.132,20.124C-22.866,22.863 -27.302,22.863 -30.036,20.124L-50.163,0C-52.891,-2.736 -52.891,-7.17 -50.163,-9.906L-30.036,-30.038C-27.302,-32.769 -22.866,-32.769 -20.132,-30.038L0,-9.906Z" style="fill:white;fill-rule:nonzero;"/>
        </g>
        <g transform="matrix(0.382408,0,0,0.38012,616.064,1006.86)">
            <path d="M0,-9.898C2.739,-7.167 2.739,-2.731 0,0.007L-20.117,20.127C-22.855,22.863 -27.297,22.863 -30.03,20.127L-50.152,0.007C-52.891,-2.731 -52.891,-7.167 -50.152,-9.898L-30.03,-30.025C-27.297,-32.761 -22.855,-32.761 -20.117,-30.025L0,-9.898Z" style="fill:white;fill-rule:nonzero;"/>
        </g>
        <g transform="matrix(0.382408,0,0,0.38012,635.01,988.027)">
            <path d="M0,-9.908C2.733,-7.177 2.733,-2.738 0,-0.002L-20.122,20.125C-22.866,22.862 -27.297,22.862 -30.036,20.125L-50.152,-0.002C-52.896,-2.738 -52.896,-7.177 -50.157,-9.908L-30.036,-30.032C-27.297,-32.77 -22.866,-32.77 -20.122,-30.032L0,-9.908Z" style="fill:white;fill-rule:nonzero;"/>
        </g>
        <g transform="matrix(0.382408,0,0,0.38012,653.953,969.196)">
            <path d="M0,-9.909C2.739,-7.17 2.739,-2.731 0,0.005L-20.122,20.129C-22.866,22.855 -27.296,22.855 -30.03,20.129L-50.157,0C-52.901,-2.731 -52.901,-7.17 -50.157,-9.909L-30.03,-30.025C-27.296,-32.764 -22.866,-32.764 -20.122,-30.025L0,-9.909Z" style="fill:white;fill-rule:nonzero;"/>
        </g>
        <g transform="matrix(0.382408,0,0,0.38012,672.9,950.364)">
            <path d="M0,-9.901C2.728,-7.171 2.728,-2.731 0,0.005L-20.132,20.132C-22.871,22.863 -27.313,22.863 -30.036,20.132L-50.168,0.005C-52.907,-2.731 -52.907,-7.171 -50.168,-9.901L-30.036,-30.025C-27.313,-32.764 -22.871,-32.764 -20.132,-30.025L0,-9.901Z" style="fill:white;fill-rule:nonzero;"/>
        </g>
        <g transform="matrix(0.382408,0,0,0.38012,691.842,931.537)">
            <path d="M0,-9.917C2.728,-7.178 2.728,-2.739 -0.005,-0.009L-20.127,20.116C-22.861,22.854 -27.302,22.854 -30.041,20.116L-50.157,-0.009C-52.896,-2.739 -52.896,-7.178 -50.157,-9.917L-30.041,-30.042C-27.302,-32.771 -22.861,-32.771 -20.127,-30.042L0,-9.917Z" style="fill:rgb(80,153,128);fill-rule:nonzero;"/>
        </g>
        <g transform="matrix(0.382408,0,0,0.38012,672.739,1063.2)">
            <path d="M0,-9.918C2.739,-7.183 2.739,-2.743 0,-0.012L-20.132,20.12C-22.86,22.858 -27.291,22.858 -30.03,20.12L-50.162,-0.012C-52.901,-2.743 -52.901,-7.183 -50.162,-9.918L-30.03,-30.043C-27.291,-32.776 -22.86,-32.776 -20.132,-30.043L0,-9.918Z" style="fill:white;fill-rule:nonzero;"/>
        </g>
        <g transform="matrix(0.382408,0,0,0.38012,571.081,615.731)">
            <g opacity="0.699997">
                <g>
                    <g opacity="0.399994">
                        <g transform="matrix(1,0,0,1,216.506,1028.75)">
                            <path d="M0,-9.914C2.738,-7.175 2.728,-2.739 0,-0.008L-20.133,20.125C-22.86,22.855 -27.297,22.855 -30.031,20.125L-50.163,-0.008C-52.896,-2.739 -52.896,-7.175 -50.163,-9.914L-30.031,-30.039C-27.297,-32.769 -22.86,-32.769 -20.133,-30.039L0,-9.914Z" style="fill:rgb(99,116,144);fill-rule:nonzero;"/>
                        </g>
                    </g>
                </g>
                <g>
                    <g opacity="0.399994">
                        <g transform="matrix(1,0,0,1,266.048,979.207)">
                            <clipPath id="_clip1">
                                <rect x="-52.216" y="-32.087" width="54.258" height="54.27" clip-rule="nonzero"/>
                            </clipPath>
                            <g clip-path="url(#_clip1)">
                                <path d="M0,-9.906C2.723,-7.168 2.723,-2.737 0,0L-20.132,20.127C-22.871,22.863 -27.302,22.863 -30.041,20.127L-50.162,0C-52.901,-2.737 -52.901,-7.168 -50.162,-9.906L-30.041,-30.031C-27.302,-32.769 -22.871,-32.769 -20.132,-30.031L0,-9.906Z" style="fill:rgb(99,116,144);fill-rule:nonzero;"/>
                            </g>
                        </g>
                    </g>
                </g>
                <g>
                    <g opacity="0.399994">
                        <g transform="matrix(1,0,0,1,315.585,929.675)">
                            <clipPath id="_clip2">
                                <rect x="-52.211" y="-32.085" width="54.257" height="54.26" clip-rule="nonzero"/>
                            </clipPath>
                            <g clip-path="url(#_clip2)">
                                <path d="M0,-9.916C2.728,-7.177 2.728,-2.738 0,-0.007L-20.127,20.117C-22.866,22.855 -27.302,22.855 -30.041,20.117L-50.157,-0.007C-52.896,-2.738 -52.896,-7.177 -50.157,-9.916L-30.041,-30.041C-27.302,-32.771 -22.866,-32.771 -20.127,-30.041L0,-9.916Z" style="fill:rgb(99,116,144);fill-rule:nonzero;"/>
                            </g>
                        </g>
                    </g>
                </g>
                <g>
                    <g opacity="0.399994">
                        <g transform="matrix(1,0,0,1,365.117,880.126)">
                            <clipPath id="_clip3">
                                <rect x="-52.202" y="-32.086" width="54.256" height="54.27" clip-rule="nonzero"/>
                            </clipPath>
                            <g clip-path="url(#_clip3)">
                                <path d="M0,-9.901C2.739,-7.162 2.739,-2.731 0,0.007L-20.127,20.132C-22.855,22.863 -27.297,22.863 -30.031,20.132L-50.152,0.007C-52.885,-2.731 -52.885,-7.162 -50.152,-9.901L-30.031,-30.033C-27.297,-32.764 -22.855,-32.764 -20.127,-30.033L0,-9.901Z" style="fill:rgb(99,116,144);fill-rule:nonzero;"/>
                            </g>
                        </g>
                    </g>
                </g>
                <g>
                    <g opacity="0.399994">
                        <g transform="matrix(1,0,0,1,315.375,1127.61)">
                            <clipPath id="_clip4">
                                <rect x="-52.211" y="-32.076" width="54.265" height="54.257" clip-rule="nonzero"/>
                            </clipPath>
                            <g clip-path="url(#_clip4)">
                                <path d="M0,-9.898C2.738,-7.167 2.738,-2.731 0,0.008L-20.122,20.132C-22.866,22.863 -27.292,22.863 -30.031,20.132L-50.158,0.008C-52.896,-2.731 -52.896,-7.167 -50.158,-9.898L-30.031,-30.025C-27.292,-32.761 -22.866,-32.761 -20.122,-30.025L0,-9.898Z" style="fill:rgb(99,116,144);fill-rule:nonzero;"/>
                            </g>
                        </g>
                    </g>
                </g>
                <g>
                    <g opacity="0.399994">
                        <g transform="matrix(1,0,0,1,364.917,1078.08)">
                            <clipPath id="_clip5">
                                <rect x="-52.211" y="-32.084" width="54.257" height="54.256" clip-rule="nonzero"/>
                            </clipPath>
                            <g clip-path="url(#_clip5)">
                                <path d="M0,-9.914C2.728,-7.175 2.728,-2.739 0,-0.001L-20.127,20.124C-22.86,22.855 -27.302,22.855 -30.041,20.124L-50.157,-0.001C-52.896,-2.739 -52.896,-7.175 -50.157,-9.914L-30.041,-30.039C-27.302,-32.769 -22.86,-32.769 -20.127,-30.039L0,-9.914Z" style="fill:rgb(99,116,144);fill-rule:nonzero;"/>
                            </g>
                        </g>
                    </g>
                </g>
                <g>
                    <g opacity="0.399994">
                        <g transform="matrix(1,0,0,1,414.448,1028.54)">
                            <clipPath id="_clip6">
                                <rect x="-52.2" y="-32.082" width="54.254" height="54.26" clip-rule="nonzero"/>
                            </clipPath>
                            <g clip-path="url(#_clip6)">
                                <path d="M0,-9.906C2.739,-7.17 2.739,-2.736 0,0L-20.116,20.124C-22.854,22.863 -27.291,22.863 -30.03,20.124L-50.146,0C-52.885,-2.736 -52.885,-7.17 -50.146,-9.906L-30.03,-30.038C-27.291,-32.769 -22.854,-32.769 -20.116,-30.038L0,-9.906Z" style="fill:rgb(99,116,144);fill-rule:nonzero;"/>
                            </g>
                        </g>
                    </g>
                </g>
                <g>
                    <g opacity="0.399994">
                        <g transform="matrix(1,0,0,1,266.048,1078.28)">
                            <clipPath id="_clip7">
                                <rect x="-52.216" y="-32.078" width="54.258" height="54.262" clip-rule="nonzero"/>
                            </clipPath>
                            <g clip-path="url(#_clip7)">
                                <path d="M0,-9.895C2.723,-7.17 2.723,-2.731 0,0.005L-20.132,20.13C-22.871,22.869 -27.302,22.869 -30.041,20.13L-50.162,0.013C-52.901,-2.731 -52.901,-7.17 -50.162,-9.895L-30.041,-30.025C-27.302,-32.764 -22.871,-32.764 -20.132,-30.025L0,-9.895Z" style="fill:rgb(99,116,144);fill-rule:nonzero;"/>
                            </g>
                        </g>
                    </g>
                </g>
            </g>
        </g>
        <g transform="matrix(0.382408,0,0,0.38012,634.929,1025.61)">
            <path d="M0,-9.895C2.739,-7.17 2.739,-2.731 0,0.005L-20.122,20.13C-22.855,22.869 -27.292,22.869 -30.03,20.13L-50.162,0.005C-52.885,-2.731 -52.885,-7.17 -50.157,-9.895L-30.03,-30.025C-27.292,-32.764 -22.855,-32.764 -20.117,-30.025L0,-9.895Z" style="fill:white;fill-rule:nonzero;"/>
        </g>
        <g transform="matrix(0.382408,0,0,0.38012,653.875,1044.44)">
            <path d="M0,-9.898C2.728,-7.167 2.728,-2.731 0,0.008L-20.127,20.132C-22.86,22.863 -27.302,22.863 -30.031,20.132L-50.158,0.008C-52.896,-2.731 -52.896,-7.167 -50.158,-9.898L-30.031,-30.025C-27.302,-32.761 -22.86,-32.761 -20.127,-30.025L0,-9.898Z" style="fill:white;fill-rule:nonzero;"/>
        </g>
        <g transform="matrix(0.382408,0,0,0.38012,691.763,1006.78)">
            <path d="M0,-9.914C2.728,-7.175 2.728,-2.739 0,-0.008L-20.127,20.125C-22.866,22.855 -27.302,22.855 -30.041,20.125L-50.157,-0.008C-52.896,-2.739 -52.896,-7.175 -50.157,-9.914L-30.041,-30.033C-27.302,-32.769 -22.866,-32.769 -20.127,-30.033L0,-9.914Z" style="fill:rgb(80,153,128);fill-rule:nonzero;"/>
        </g>
        <g transform="matrix(0.382408,0,0,0.38012,710.705,987.948)">
            <path d="M0,-9.906C2.739,-7.168 2.739,-2.737 0,0L-20.127,20.127C-22.86,22.863 -27.297,22.863 -30.031,20.127L-50.152,0C-52.885,-2.737 -52.885,-7.168 -50.152,-9.906L-30.031,-30.031C-27.297,-32.769 -22.855,-32.769 -20.127,-30.031L0,-9.906Z" style="fill:white;fill-rule:nonzero;"/>
        </g>
        <g transform="matrix(0.382408,0,0,0.38012,748.515,987.872)">
            <path d="M0,-9.914C2.739,-7.175 2.739,-2.744 0,-0.008L-20.122,20.119C-22.861,22.855 -27.292,22.855 -30.03,20.119L-50.163,-0.008C-52.896,-2.744 -52.896,-7.175 -50.163,-9.914L-30.03,-30.038C-27.292,-32.769 -22.861,-32.769 -20.122,-30.038L0,-9.914Z" style="fill:white;fill-rule:nonzero;"/>
        </g>
        <g transform="matrix(0.382408,0,0,0.38012,729.65,969.119)">
            <path d="M0,-9.916C2.739,-7.177 2.739,-2.738 0,-0.007L-20.132,20.117C-22.854,22.855 -27.291,22.855 -30.035,20.117L-50.157,-0.007C-52.896,-2.738 -52.896,-7.177 -50.157,-9.916L-30.035,-30.041C-27.291,-32.771 -22.854,-32.771 -20.127,-30.041L0,-9.916Z" style="fill:white;fill-rule:nonzero;"/>
        </g>
        <g transform="matrix(0.484699,0,0,0.484699,864.234,1009.51)">
            <path d="M0,-145.786L-66.825,-145.786C-99.11,-145.786 -116.951,-124.119 -120.352,-80.793L-120.352,-59.388C-120.352,-21.158 -103.079,-0.679 -68.528,2.036L-18.697,2.036L-18.697,-58.876L-71.362,-58.876L-71.362,-81.047L5.945,-81.047L5.945,22.169L-68.528,22.169C-119.495,22.169 -144.989,-5.015 -144.989,-59.388L-144.989,-80.793C-141.394,-137.709 -115.069,-166.76 -65.984,-167.955L0,-165.916L0,-145.786Z" style="fill:white;fill-rule:nonzero;"/>
        </g>
        <g transform="matrix(0.484699,0,0,0.484699,958.253,1008.89)">
            <path d="M0,-143.998L-101.944,-143.998C-110.449,-143.998 -114.691,-140.174 -114.691,-132.528L-114.691,-82.066L-26.046,-82.066L-26.046,-61.679L-114.691,-61.679L-114.691,-11.22C-114.691,-3.74 -110.449,-0.005 -101.944,-0.005L-0.562,-0.005L-0.562,20.133L-101.944,22.172C-127.054,22.172 -139.607,11.042 -139.607,-11.22L-139.607,-132.528C-139.428,-154.955 -126.86,-166.17 -101.944,-166.17L0,-164.13L0,-143.998Z" style="fill:white;fill-rule:nonzero;"/>
        </g>
        <g transform="matrix(0.484699,0,0,0.484699,977.741,928.101)">
            <path d="M0,188.342L0,6.118C0,2.04 2.355,0 7.085,0L33.699,0C37.846,0 40.958,2.129 43.045,6.374L134.219,165.915L137.331,165.915L136.778,0.51L161.405,0.51L161.127,182.734C161.127,186.473 158.861,188.342 154.325,188.342L128.273,188.342C123.932,188.342 120.352,185.625 117.514,180.184L28.322,29.818L24.632,29.818L24.632,188.342L0,188.342Z" style="fill:white;fill-rule:nonzero;"/>
        </g>
        <g transform="matrix(0.484699,0,0,0.484699,1108.27,1009.14)">
            <path d="M0,-145.779C-28.511,-145.779 -42.75,-125.473 -42.75,-84.872L-42.75,-60.406C-42.75,-19.623 -28.511,0.764 0,0.764L20.958,0.764C48.518,0.764 62.306,-19.623 62.306,-60.406L62.306,-84.872C62.306,-125.473 48.518,-145.779 20.958,-145.779L0,-145.779ZM88.63,-85.632L88.63,-59.893C88.63,-5.864 65.706,21.154 19.828,21.154L0.289,21.154C-45.589,21.154 -68.528,-5.864 -68.528,-59.893L-68.528,-85.632C-68.528,-139.834 -45.589,-166.933 0.289,-166.933L19.828,-166.933C65.706,-166.933 88.63,-139.834 88.63,-85.632" style="fill:white;fill-rule:nonzero;"/>
        </g>
        <g transform="matrix(0.484699,0,0,0.484699,1212.03,938.971)">
            <path d="M0,143.745C26.798,143.745 40.212,133.208 40.212,112.135C40.012,90.568 28.317,79.774 5.088,79.774L-50.688,79.774L-50.688,143.745L0,143.745ZM-3.4,59.386C22.645,59.213 35.771,49.785 35.965,31.096C35.965,10.37 22.845,0.001 -3.4,0.001L-50.688,0.001L-50.688,59.386L-3.4,59.386ZM-75.325,165.916L-75.325,-22.171L0,-22.171C41.91,-21.997 62.952,-4.501 63.146,30.328C63.146,52.59 51.535,65.67 28.317,69.576C54.936,73.49 68.25,87.503 68.25,111.631C67.293,146.289 44.175,164.387 -1.135,165.916L-75.325,165.916Z" style="fill:white;fill-rule:nonzero;"/>
        </g>
        <g transform="matrix(-0.484699,-0,0,0.484699,2067.23,438.678)">
            <rect x="1621.97" y="1010.26" width="24.622" height="188.342" style="fill:white;"/>
        </g>
        <g transform="matrix(0.484699,0,0,0.484699,1375.22,1019.64)">
            <path d="M0,-188.597L0,-166.426L-62.29,-166.426L-62.29,0L-87.494,0L-87.494,-166.426L-154.887,-166.426L-154.887,-188.597L0,-188.597Z" style="fill:white;fill-rule:nonzero;"/>
        </g>
        <g transform="matrix(0.484699,0,0,0.484699,1458.27,1008.89)">
            <path d="M0,-143.998L-101.944,-143.998C-110.449,-143.998 -114.691,-140.174 -114.691,-132.528L-114.691,-82.066L-26.045,-82.066L-26.045,-61.679L-114.691,-61.679L-114.691,-11.22C-114.691,-3.74 -110.449,-0.005 -101.944,-0.005L-0.568,-0.005L-0.568,20.133L-101.944,22.172C-127.054,22.172 -139.607,11.042 -139.607,-11.22L-139.607,-132.528C-139.428,-154.955 -126.865,-166.17 -101.944,-166.17L0,-164.13L0,-143.998Z" style="fill:white;fill-rule:nonzero;"/>
        </g>
        <g transform="matrix(0.280084,0,0,0.280084,952.535,1073.98)">
            <path d="M0,-58.306L-26.724,-58.306C-39.639,-58.306 -46.777,-49.643 -48.144,-32.31L-48.144,-23.753C-48.144,-8.459 -41.231,-0.266 -27.418,0.819L-7.48,0.819L-7.48,-23.545L-28.538,-23.545L-28.538,-32.415L2.375,-32.415L2.375,8.871L-27.418,8.871C-47.797,8.871 -57.99,-2.004 -57.99,-23.753L-57.99,-32.31C-56.565,-55.076 -46.031,-66.698 -26.398,-67.177L0,-66.359L0,-58.306Z" style="fill:white;fill-rule:nonzero;"/>
        </g>
        <g transform="matrix(0.280084,0,0,0.280084,970.3,1068.24)">
            <path d="M0,2.957L-21.294,2.957C-24.916,3.566 -26.924,6.726 -27.292,12.437C-27.292,18.624 -24.916,21.714 -20.159,21.714C-14.797,21.575 -8.074,19.336 0,14.987L0,2.957ZM-13.814,-25.891C1.966,-25.284 9.861,-18.923 9.861,-6.831L9.861,28.848L1.246,28.848L0.678,22.529C-7.701,26.677 -14.645,28.787 -20.159,28.848C-31.487,28.848 -37.153,23.207 -37.153,11.924C-36.917,1.057 -31.676,-4.584 -21.404,-4.994L0,-4.994L0,-9.688C0,-14.374 -2.86,-17.126 -8.6,-17.94C-11.396,-18.08 -14.203,-18.143 -16.995,-18.143L-31.487,-18.143L-31.487,-24.876C-25.983,-25.552 -20.091,-25.891 -13.814,-25.891" style="fill:white;fill-rule:nonzero;"/>
        </g>
        <g transform="matrix(0.280084,0,0,0.280084,990.829,1060.99)">
            <path d="M0,54.738L0,24.161C0,13.286 -2.797,7.845 -8.379,7.845L-15.181,7.845C-18.503,7.984 -22.43,9.989 -26.966,13.861L-26.966,54.738L-36.806,54.738L-36.806,0L-27.86,0L-26.851,6.118C-22.319,2.039 -18.43,0 -15.181,0L-8.379,0C-1.893,0 3.011,2.854 6.35,8.565C10.87,3.532 15.554,0.675 20.379,0L26.051,0C38.13,0 44.175,8.053 44.175,24.161L44.175,54.738L34.429,54.738L34.429,24.161C34.429,13.286 31.633,7.845 26.051,7.845L20.379,7.845C17.062,7.984 13.172,10.258 8.726,14.675C9.398,17.462 9.735,20.629 9.735,24.161L9.735,54.738L0,54.738Z" style="fill:white;fill-rule:nonzero;"/>
        </g>
        <g transform="matrix(0.280084,0,0,0.280084,1020.71,1070.78)">
            <path d="M0,-14.571C-0.084,-22.661 -3.706,-26.739 -10.88,-26.8L-18.802,-26.8C-25.236,-26.739 -28.926,-21.3 -29.904,-10.492L-4.757,-10.492C-1.592,-10.492 0,-11.854 0,-14.571M-29.799,-2.647C-28.732,7.283 -22.997,12.24 -12.579,12.24C-8.573,12.24 -2.308,11.901 6.219,11.222L7.354,18.461C1.918,19.546 -4.841,20.085 -12.915,20.085C-30.367,20.085 -39.092,10.981 -39.092,-7.23C-39.092,-25.515 -32.521,-34.656 -19.37,-34.656L-9.53,-34.656C2.949,-34.656 9.362,-27.617 9.735,-13.556C9.362,-6.281 6.376,-2.647 0.789,-2.647L-29.799,-2.647Z" style="fill:white;fill-rule:nonzero;"/>
        </g>
        <g transform="matrix(0.280084,0,0,0.280084,1041.53,1076.1)">
            <path d="M0,-53.22L0,-45.574L-24.127,-45.68C-31.302,-45.68 -34.887,-44.56 -34.887,-42.313L-34.887,-36.505C-34.509,-34.12 -32.022,-32.591 -27.402,-31.913L-13.025,-29.571C-2.986,-28.007 2.035,-23.758 2.035,-16.83L2.035,-11.526C2.035,-3.367 -4.189,0.712 -16.647,0.712L-43.392,-0.009L-43.392,-7.752L-17.104,-7.552C-10.602,-7.552 -7.37,-8.879 -7.37,-11.526L-7.37,-16.83C-7.438,-19.276 -10.014,-20.866 -15.07,-21.621L-30.808,-24.165C-39.334,-26.134 -43.834,-30.178 -44.286,-36.297L-44.181,-42.313C-44.181,-50.061 -37.5,-53.932 -24.127,-53.932L0,-53.22Z" style="fill:white;fill-rule:nonzero;"/>
        </g>
        <g transform="matrix(0.280084,0,0,0.280084,1071.09,1061.33)">
            <path d="M0,52.908L-21.751,54.028C-37.153,54.028 -44.87,44.855 -44.87,26.505C-44.87,8.089 -37.153,-1.12 -21.751,-1.12L0,-0.001L0,7.645L-21.415,7.343C-30.472,7.343 -35.008,13.729 -35.008,26.505C-35.008,39.352 -30.472,45.772 -21.415,45.772L0,45.463L0,52.908Z" style="fill:white;fill-rule:nonzero;"/>
        </g>
        <g transform="matrix(0.280084,0,0,0.280084,1086.95,1074.04)">
            <path d="M0,-38.423C-4.079,-38.63 -8.158,-38.735 -12.236,-38.735C-15.548,-38.596 -19.48,-36.591 -24.011,-32.719L-24.011,8.158L-33.862,8.158L-33.862,-46.581L-24.916,-46.581L-23.906,-40.568C-19.364,-44.578 -15.485,-46.581 -12.236,-46.581C-8.158,-46.581 -4.079,-46.208 0,-45.461L0,-38.423Z" style="fill:white;fill-rule:nonzero;"/>
        </g>
        <g transform="matrix(0.280084,0,0,0.280084,1102.15,1068.24)">
            <path d="M0,2.957L-21.289,2.957C-24.926,3.566 -26.918,6.726 -27.302,12.437C-27.302,18.624 -24.926,21.714 -20.153,21.714C-14.803,21.575 -8.084,19.336 0,14.987L0,2.957ZM-13.825,-25.891C1.966,-25.284 9.851,-18.923 9.851,-6.831L9.851,28.848L1.251,28.848L0.683,22.529C-7.695,26.677 -14.655,28.787 -20.153,28.848C-31.497,28.848 -37.153,23.207 -37.153,11.924C-36.932,1.057 -31.676,-4.584 -21.415,-4.994L0,-4.994L0,-9.688C0,-14.374 -2.87,-17.126 -8.61,-17.94C-11.407,-18.08 -14.198,-18.143 -16.989,-18.143L-31.497,-18.143L-31.497,-24.876C-25.978,-25.552 -20.09,-25.891 -13.825,-25.891" style="fill:white;fill-rule:nonzero;"/>
        </g>
        <g transform="matrix(0.280084,0,0,0.280084,1113.61,1054.63)">
            <path d="M0,77.27L0,30.169L-8.158,30.169L-8.158,22.731L0,22.731L0,16.1C0,5.364 6.897,0 20.721,0L30.693,1.12L30.693,8.15L21.163,7.845C13.699,7.845 9.957,10.702 9.957,16.411L9.957,22.731L26.725,22.731L26.725,30.169L9.957,30.169L9.957,77.27L0,77.27Z" style="fill:white;fill-rule:nonzero;"/>
        </g>
        <g transform="matrix(0.280084,0,0,0.280084,1129.44,1076.27)">
            <path d="M0,-67.593L0,-54.539L16.994,-54.539L16.994,-47.101L0,-47.101L0,-14.277C0.231,-10.127 2.071,-7.985 5.561,-7.853L17.335,-8.158L17.335,-1.12L3.748,0C-5.325,0 -9.846,-5.102 -9.846,-15.291L-9.846,-47.101L-18.913,-47.101L-18.913,-54.539L-9.846,-54.539L-9.846,-67.593L0,-67.593Z" style="fill:white;fill-rule:nonzero;"/>
        </g>
        <g transform="matrix(0.280084,0,0,0.280084,1150.75,1070.78)">
            <path d="M0,-14.571C-0.063,-22.661 -3.701,-26.739 -10.865,-26.8L-18.802,-26.8C-25.221,-26.739 -28.921,-21.3 -29.904,-10.492L-4.751,-10.492C-1.587,-10.492 0,-11.854 0,-14.571M-29.783,-2.647C-28.731,7.283 -22.992,12.24 -12.563,12.24C-8.568,12.24 -2.302,11.901 6.24,11.222L7.37,18.461C1.924,19.546 -4.825,20.085 -12.91,20.085C-30.351,20.085 -39.071,10.981 -39.071,-7.23C-39.071,-25.515 -32.506,-34.656 -19.364,-34.656L-9.509,-34.656C2.949,-34.656 9.367,-27.617 9.751,-13.556C9.367,-6.281 6.392,-2.647 0.789,-2.647L-29.783,-2.647Z" style="fill:white;fill-rule:nonzero;"/>
        </g>
        <g transform="matrix(0.280084,0,0,0.280084,1170.49,1058.85)">
            <path d="M0,48.526L0,17.839C-4.384,16.483 -8.684,15.806 -12.921,15.806L-17.452,15.806C-26.052,15.806 -30.367,21.239 -30.367,32.115L-30.367,38.234C-30.367,49.101 -26.052,54.542 -17.452,54.542L-12.921,54.542C-9.599,54.402 -5.288,52.397 0,48.526M0,10.095L0,-13.861L9.855,-13.861L9.855,62.387L0.894,62.387L-0.116,56.373C-5.409,60.384 -9.672,62.387 -12.921,62.387L-17.452,62.387C-32.553,62.387 -40.102,54.334 -40.102,38.234L-40.102,32.115C-40.102,16.143 -32.553,8.158 -17.452,8.158L-12.921,8.158C-8.684,8.429 -4.384,9.07 0,10.095" style="fill:white;fill-rule:nonzero;"/>
        </g>
        <g transform="matrix(0.280084,0,0,0.280084,1212.87,1076.32)">
            <path d="M0,-54.738L-10.76,-2.039C-11.065,-0.675 -11.854,0 -13.136,0L-25.142,0C-26.424,0 -27.339,-0.675 -27.865,-2.039L-39.865,-44.646L-41.111,-44.646L-52.097,-2.039C-52.475,-0.675 -53.306,0 -54.588,0L-67.046,0C-68.334,0 -69.123,-0.675 -69.422,-2.039L-82.122,-54.738L-72.371,-54.738L-60.938,-8.965L-59.692,-8.965L-48.701,-53.004C-48.396,-54.157 -47.608,-54.738 -46.32,-54.738L-35.56,-54.738C-34.278,-54.738 -33.447,-54.157 -33.074,-53.004L-20.158,-8.557L-18.918,-8.557L-8.946,-54.738L0,-54.738Z" style="fill:white;fill-rule:nonzero;"/>
        </g>
        <g transform="matrix(0.280084,0,0,0.280084,750.543,813.529)">
            <path d="M1685.35,938.072L1675.49,938.072L1675.49,883.533L1685.35,883.533L1685.35,938.072ZM1685.35,869.664L1675.49,869.664L1675.49,860.802L1685.35,860.802L1685.35,869.664Z" style="fill:white;fill-rule:nonzero;"/>
        </g>
        <g transform="matrix(0.280084,0,0,0.280084,1233.87,1076.27)">
            <path d="M0,-67.593L0,-54.539L16.989,-54.539L16.989,-47.101L0,-47.101L0,-14.277C0.232,-10.127 2.071,-7.985 5.556,-7.853L17.336,-8.158L17.336,-1.12L3.743,0C-5.324,0 -9.845,-5.102 -9.845,-15.291L-9.845,-47.101L-18.917,-47.101L-18.917,-54.539L-9.845,-54.539L-9.845,-67.593L0,-67.593Z" style="fill:white;fill-rule:nonzero;"/>
        </g>
        <g transform="matrix(0.280084,0,0,0.280084,1248.18,1076.27)">
            <path d="M0,-77.27L0,-51.684C5.977,-53.453 12.61,-54.402 19.938,-54.539C33.006,-54.402 39.618,-49.072 39.765,-38.535L39.765,0L29.91,0L29.91,-31.704C29.91,-41.219 26.855,-45.973 20.726,-45.973C13.262,-45.973 6.344,-44.888 0,-42.717L0,0L-9.856,0L-9.856,-77.27L0,-77.27Z" style="fill:white;fill-rule:nonzero;"/>
        </g>
        <g transform="matrix(0.280084,0,0,0.280084,1278.86,1079)">
            <path d="M0,-72.465C-9.932,-72.465 -18.014,-62.402 -18.014,-50.031C-18.706,-26.918 14.242,-4.751 20.584,-0.704C26.876,-4.765 59.469,-26.934 58.778,-49.97C58.846,-56.885 56.455,-63.261 52.212,-67.548C49.027,-70.765 45.159,-72.465 41.027,-72.465C29.494,-72.465 22.608,-65.876 22.608,-54.838L18.571,-54.838C18.571,-71.194 4.358,-72.465 0,-72.465M20.595,4.037L19.551,3.412C17.819,2.371 -22.879,-22.369 -22.051,-50.091C-22.051,-64.628 -12.158,-76.502 0,-76.502C9.864,-76.502 17.22,-72.116 20.582,-64.77C23.925,-72.116 31.231,-76.502 41.027,-76.502C46.186,-76.502 51.177,-74.331 55.08,-70.386C60.076,-65.342 62.894,-57.915 62.815,-50.01C63.643,-22.377 23.352,2.366 21.636,3.407L20.595,4.037Z" style="fill:rgb(80,153,128);fill-rule:nonzero;"/>
        </g>
    </g>
</svg>
