<?xml version="1.0" encoding="UTF-8" standalone="no"?>
<!DOCTYPE svg PUBLIC "-//W3C//DTD SVG 1.1//EN" "http://www.w3.org/Graphics/SVG/1.1/DTD/svg11.dtd">
<svg width="100%" height="100%" viewBox="0 0 3514 680" version="1.1" xmlns="http://www.w3.org/2000/svg" xmlns:xlink="http://www.w3.org/1999/xlink" xml:space="preserve" xmlns:serif="http://www.serif.com/" style="fill-rule:evenodd;clip-rule:evenodd;stroke-linejoin:round;stroke-miterlimit:1.41421;">
    <g transform="matrix(4.16667,0,0,4.16667,-1797.6,-1844.16)">
        <g transform="matrix(1,0,0,1,-184,-499)">
            <g transform="matrix(1.26187,0,0,1.26187,261.566,578.911)">
                <g id="lOGO">
                    <g id="Text">
                        <g id="Genobite-studios" serif:id="Genobite studios" transform="matrix(1.13218,0,0,1.12346,431.997,343.62)">
                            <path d="M30.703,-5.232C27.889,-2.962 24.533,-2.073 20.88,-2.073C11.896,-2.073 5.232,-8.638 5.232,-17.277C5.232,-25.964 11.896,-32.48 20.88,-32.48C25.076,-32.48 28.679,-31.345 31.69,-28.383L33.27,-30.061C30.209,-33.22 25.816,-34.8 20.831,-34.8C10.366,-34.8 2.715,-27.346 2.715,-17.277C2.715,-7.207 10.366,0.247 20.781,0.247C25.52,0.247 30.012,-1.234 33.122,-4.196L33.122,-17.129L30.703,-17.129L30.703,-5.232Z" style="fill:rgb(251,251,251);fill-rule:nonzero;"/>
                            <path d="M46.696,-2.271L46.696,-16.437L65.108,-16.437L65.108,-18.659L46.696,-18.659L46.696,-32.283L67.28,-32.283L67.28,-34.553L44.179,-34.553L44.179,0L68.02,0L68.02,-2.271L46.696,-2.271Z" style="fill:rgb(251,251,251);fill-rule:nonzero;"/>
                            <path d="M102.82,-34.553L102.82,-4.541L79.324,-34.553L77.202,-34.553L77.202,0L79.719,0L79.719,-30.012L103.265,0L105.338,0L105.338,-34.553L102.82,-34.553Z" style="fill:rgb(251,251,251);fill-rule:nonzero;"/>
                            <path d="M132.043,0.247C142.31,0.247 150.01,-7.207 150.01,-17.277C150.01,-27.346 142.31,-34.8 132.043,-34.8C121.726,-34.8 114.075,-27.297 114.075,-17.277C114.075,-7.256 121.726,0.247 132.043,0.247ZM132.043,-2.073C123.207,-2.073 116.592,-8.54 116.592,-17.277C116.592,-26.014 123.207,-32.48 132.043,-32.48C140.829,-32.48 147.443,-26.014 147.443,-17.277C147.443,-8.54 140.829,-2.073 132.043,-2.073Z" style="fill:rgb(251,251,251);fill-rule:nonzero;"/>
                            <path d="M180.121,-17.82C183.28,-19.103 185.403,-21.719 185.403,-25.668C185.403,-31.295 180.96,-34.553 173.26,-34.553L158.352,-34.553L158.352,0L174.247,0C182.885,0 187.229,-3.357 187.229,-9.231C187.229,-13.92 184.563,-16.832 180.121,-17.82ZM173.013,-31.542C178.541,-31.542 181.75,-29.42 181.75,-25.273C181.75,-21.127 178.541,-19.004 173.013,-19.004L162.005,-19.004L162.005,-31.542L173.013,-31.542ZM174.197,-3.011L162.005,-3.011L162.005,-15.993L174.197,-15.993C180.269,-15.993 183.576,-14.019 183.576,-9.527C183.576,-4.986 180.269,-3.011 174.197,-3.011Z" style="fill:rgb(251,251,251);fill-rule:nonzero;"/>
                            <rect x="195.571" y="-34.553" width="3.653" height="34.553" style="fill:rgb(251,251,251);fill-rule:nonzero;"/>
                            <path d="M217.191,0L220.844,0L220.844,-31.394L232.987,-31.394L232.987,-34.553L205.049,-34.553L205.049,-31.394L217.191,-31.394L217.191,0Z" style="fill:rgb(251,251,251);fill-rule:nonzero;"/>
                            <path d="M242.465,-3.159L242.465,-15.993L260.334,-15.993L260.334,-19.103L242.465,-19.103L242.465,-31.394L262.506,-31.394L262.506,-34.553L238.812,-34.553L238.812,0L263.246,0L263.246,-3.159L242.465,-3.159Z" style="fill:rgb(251,251,251);fill-rule:nonzero;"/>
                            <path d="M290.888,0.197C297.454,0.197 301.057,-2.666 301.057,-6.861C301.057,-16.684 283.978,-11.205 283.978,-18.955C283.978,-21.719 286.199,-23.792 291.234,-23.792C293.998,-23.792 296.812,-23.052 298.984,-21.472L300.119,-23.447C298.095,-24.977 294.541,-25.964 291.283,-25.964C284.768,-25.964 281.51,-22.805 281.51,-18.906C281.51,-8.786 298.589,-14.315 298.589,-6.812C298.589,-3.9 296.417,-1.974 290.987,-1.974C287.186,-1.974 283.682,-3.406 281.707,-5.084L280.572,-3.11C282.596,-1.234 286.643,0.197 290.888,0.197Z" style="fill:rgb(251,251,251);fill-rule:nonzero;"/>
                            <path d="M319.716,-3.357C318.679,-2.419 317.248,-1.925 315.717,-1.925C312.558,-1.925 310.929,-3.751 310.929,-7.059L310.929,-23.644L319.123,-23.644L319.123,-25.767L310.929,-25.767L310.929,-31.394L308.461,-31.394L308.461,-25.767L303.723,-25.767L303.723,-23.644L308.461,-23.644L308.461,-6.812C308.461,-2.468 310.929,0.197 315.471,0.197C317.396,0.197 319.469,-0.395 320.752,-1.629L319.716,-3.357Z" style="fill:rgb(251,251,251);fill-rule:nonzero;"/>
                            <path d="M347.704,-25.767L347.704,-12.044C347.704,-5.923 344.1,-2.024 338.276,-2.024C332.895,-2.024 329.786,-5.084 329.786,-10.909L329.786,-25.767L327.317,-25.767L327.317,-10.711C327.317,-3.505 331.513,0.197 338.078,0.197C342.62,0.197 346.124,-1.925 347.803,-5.529L347.803,0L350.172,0L350.172,-25.767L347.704,-25.767Z" style="fill:rgb(251,251,251);fill-rule:nonzero;"/>
                            <path d="M381.072,-36.626L381.072,-19.794C378.999,-23.694 375.149,-25.964 370.558,-25.964C363.302,-25.964 357.823,-20.633 357.823,-12.883C357.823,-5.183 363.302,0.197 370.558,0.197C375.198,0.197 379.098,-2.073 381.122,-6.071L381.122,0L383.54,0L383.54,-36.626L381.072,-36.626ZM370.706,-2.024C364.783,-2.024 360.34,-6.417 360.34,-12.883C360.34,-19.35 364.783,-23.743 370.706,-23.743C376.63,-23.743 381.072,-19.35 381.072,-12.883C381.072,-6.417 376.63,-2.024 370.706,-2.024Z" style="fill:rgb(251,251,251);fill-rule:nonzero;"/>
                            <path d="M395.19,-32.036C396.325,-32.036 397.214,-32.924 397.214,-34.06C397.214,-35.146 396.325,-36.034 395.19,-36.034C394.054,-36.034 393.166,-35.096 393.166,-34.01C393.166,-32.924 394.054,-32.036 395.19,-32.036ZM393.956,0L396.424,0L396.424,-25.767L393.956,-25.767L393.956,0Z" style="fill:rgb(251,251,251);fill-rule:nonzero;"/>
                            <path d="M416.909,0.197C424.313,0.197 429.792,-5.232 429.792,-12.883C429.792,-20.534 424.313,-25.964 416.909,-25.964C409.505,-25.964 404.026,-20.534 404.026,-12.883C404.026,-5.232 409.505,0.197 416.909,0.197ZM416.909,-2.024C410.986,-2.024 406.543,-6.417 406.543,-12.883C406.543,-19.35 410.986,-23.743 416.909,-23.743C422.832,-23.743 427.275,-19.35 427.275,-12.883C427.275,-6.417 422.832,-2.024 416.909,-2.024Z" style="fill:rgb(251,251,251);fill-rule:nonzero;"/>
                            <path d="M443.959,0.197C450.524,0.197 454.128,-2.666 454.128,-6.861C454.128,-16.684 437.048,-11.205 437.048,-18.955C437.048,-21.719 439.27,-23.792 444.305,-23.792C447.069,-23.792 449.883,-23.052 452.054,-21.472L453.19,-23.447C451.166,-24.977 447.612,-25.964 444.354,-25.964C437.838,-25.964 434.58,-22.805 434.58,-18.906C434.58,-8.786 451.66,-14.315 451.66,-6.812C451.66,-3.9 449.488,-1.974 444.058,-1.974C440.257,-1.974 436.752,-3.406 434.778,-5.084L433.643,-3.11C435.666,-1.234 439.714,0.197 443.959,0.197Z" style="fill:rgb(251,251,251);fill-rule:nonzero;"/>
                        </g>
                        <g id="games-crafted-with-love" serif:id="games crafted with love" transform="matrix(0.527294,0,0,0.523234,441.332,381.722)">
                            <path d="M30.146,-5.137C27.383,-2.908 24.088,-2.036 20.501,-2.036C11.68,-2.036 5.137,-8.482 5.137,-16.963C5.137,-25.493 11.68,-31.891 20.501,-31.891C24.621,-31.891 28.159,-30.776 31.115,-27.868L32.666,-29.516C29.661,-32.618 25.348,-34.169 20.453,-34.169C10.178,-34.169 2.666,-26.85 2.666,-16.963C2.666,-7.076 10.178,0.242 20.404,0.242C25.057,0.242 29.468,-1.212 32.521,-4.12L32.521,-16.818L30.146,-16.818L30.146,-5.137Z" style="fill:rgb(251,251,251);fill-rule:nonzero;"/>
                            <path d="M87.53,0L90.196,0L74.59,-33.926L72.118,-33.926L56.512,0L59.177,0L63.491,-9.548L83.168,-9.548L87.53,0ZM64.46,-11.632L73.33,-31.212L82.247,-11.632L64.46,-11.632Z" style="fill:rgb(251,251,251);fill-rule:nonzero;"/>
                            <path d="M149.664,0L149.616,-33.926L147.58,-33.926L132.41,-7.706L117.24,-33.926L115.156,-33.926L115.156,0L117.579,0L117.579,-28.934L131.78,-4.507L132.992,-4.507L147.192,-29.031L147.241,0L149.664,0Z" style="fill:rgb(251,251,251);fill-rule:nonzero;"/>
                            <path d="M182.767,-2.229L182.767,-16.139L200.845,-16.139L200.845,-18.32L182.767,-18.32L182.767,-31.697L202.977,-31.697L202.977,-33.926L180.295,-33.926L180.295,0L203.704,0L203.704,-2.229L182.767,-2.229Z" style="fill:rgb(251,251,251);fill-rule:nonzero;"/>
                            <path d="M240.442,0.242C248.826,0.242 252.655,-3.926 252.655,-8.724C252.655,-21.034 231.475,-15.025 231.475,-25.203C231.475,-28.934 234.432,-31.988 241.023,-31.988C244.077,-31.988 247.518,-31.067 250.329,-29.128L251.25,-31.115C248.632,-33.006 244.755,-34.169 241.023,-34.169C232.687,-34.169 229.003,-29.952 229.003,-25.154C229.003,-12.65 250.183,-18.756 250.183,-8.579C250.183,-4.895 247.178,-1.939 240.393,-1.939C235.837,-1.939 231.524,-3.78 229.197,-6.204L228.083,-4.362C230.554,-1.648 235.401,0.242 240.442,0.242Z" style="fill:rgb(251,251,251);fill-rule:nonzero;"/>
                            <path d="M325.452,0.242C330.25,0.242 334.563,-1.357 337.52,-4.507L335.969,-6.107C333.061,-3.247 329.523,-2.036 325.548,-2.036C316.873,-2.036 310.33,-8.433 310.33,-16.963C310.33,-25.493 316.873,-31.891 325.548,-31.891C329.523,-31.891 333.061,-30.728 335.969,-27.868L337.52,-29.468C334.563,-32.618 330.25,-34.169 325.452,-34.169C315.371,-34.169 307.858,-26.85 307.858,-16.963C307.858,-7.076 315.371,0.242 325.452,0.242Z" style="fill:rgb(251,251,251);fill-rule:nonzero;"/>
                            <path d="M390.978,0L382.496,-11.874C387.537,-13.377 390.445,-17.109 390.445,-22.488C390.445,-29.661 385.307,-33.926 376.777,-33.926L364.612,-33.926L364.612,0L367.084,0L367.084,-11.099L376.777,-11.099C377.941,-11.099 379.007,-11.196 380.073,-11.341L388.167,0L390.978,0ZM367.084,-13.28L367.084,-31.697L376.777,-31.697C384.047,-31.697 387.925,-28.353 387.925,-22.488C387.925,-16.672 384.047,-13.28 376.777,-13.28L367.084,-13.28Z" style="fill:rgb(251,251,251);fill-rule:nonzero;"/>
                            <path d="M443.661,0L446.327,0L430.72,-33.926L428.249,-33.926L412.642,0L415.308,0L419.622,-9.548L439.299,-9.548L443.661,0ZM420.591,-11.632L429.46,-31.212L438.378,-11.632L420.591,-11.632Z" style="fill:rgb(251,251,251);fill-rule:nonzero;"/>
                            <path d="M493.969,-31.697L493.969,-33.926L471.287,-33.926L471.287,0L473.759,0L473.759,-14.976L491.836,-14.976L491.836,-17.206L473.759,-17.206L473.759,-31.697L493.969,-31.697Z" style="fill:rgb(251,251,251);fill-rule:nonzero;"/>
                            <path d="M527.411,0L529.883,0L529.883,-31.697L542.096,-31.697L542.096,-33.926L515.197,-33.926L515.197,-31.697L527.411,-31.697L527.411,0Z" style="fill:rgb(251,251,251);fill-rule:nonzero;"/>
                            <path d="M569.48,-2.229L569.48,-16.139L587.558,-16.139L587.558,-18.32L569.48,-18.32L569.48,-31.697L589.69,-31.697L589.69,-33.926L567.008,-33.926L567.008,0L590.417,0L590.417,-2.229L569.48,-2.229Z" style="fill:rgb(251,251,251);fill-rule:nonzero;"/>
                            <path d="M618.237,0L631.662,0C642.421,0 649.691,-7.076 649.691,-16.963C649.691,-26.85 642.421,-33.926 631.662,-33.926L618.237,-33.926L618.237,0ZM620.709,-2.229L620.709,-31.697L631.468,-31.697C641.064,-31.697 647.22,-25.59 647.22,-16.963C647.22,-8.336 641.064,-2.229 631.468,-2.229L620.709,-2.229Z" style="fill:rgb(251,251,251);fill-rule:nonzero;"/>
                            <path d="M751.277,-33.926L740.857,-3.344L730.291,-33.926L727.916,-33.926L717.302,-3.393L706.979,-33.926L704.361,-33.926L715.896,0L718.514,0L729.079,-30.437L739.596,0L742.214,0L753.7,-33.926L751.277,-33.926Z" style="fill:rgb(251,251,251);fill-rule:nonzero;"/>
                            <rect x="779.63" y="-33.926" width="2.472" height="33.926" style="fill:rgb(251,251,251);fill-rule:nonzero;"/>
                            <path d="M819.227,0L821.698,0L821.698,-31.697L833.912,-31.697L833.912,-33.926L807.013,-33.926L807.013,-31.697L819.227,-31.697L819.227,0Z" style="fill:rgb(251,251,251);fill-rule:nonzero;"/>
                            <path d="M883.978,-33.926L883.978,-18.32L861.295,-18.32L861.295,-33.926L858.824,-33.926L858.824,0L861.295,0L861.295,-16.139L883.978,-16.139L883.978,0L886.449,0L886.449,-33.926L883.978,-33.926Z" style="fill:rgb(251,251,251);fill-rule:nonzero;"/>
                        </g>
                        <g transform="matrix(0.294495,0,0,0.29519,374.701,29.603)">
                            <path d="M1886.28,1124.48C1876.35,1124.48 1868.26,1134.54 1868.26,1146.91C1867.57,1170.03 1900.52,1192.19 1906.86,1196.24C1913.15,1192.18 1945.75,1170.01 1945.06,1146.98C1945.12,1140.06 1942.73,1133.68 1938.49,1129.4C1935.3,1126.18 1931.44,1124.48 1927.3,1124.48C1915.77,1124.48 1908.88,1131.07 1908.88,1142.11L1904.85,1142.11C1904.85,1125.75 1890.63,1124.48 1886.28,1124.48M1906.87,1200.98L1905.83,1200.36C1904.1,1199.32 1863.4,1174.58 1864.23,1146.86C1864.23,1132.32 1874.12,1120.44 1886.28,1120.44C1896.14,1120.44 1903.5,1124.83 1906.86,1132.18C1910.2,1124.83 1917.51,1120.44 1927.3,1120.44C1932.46,1120.44 1937.45,1122.62 1941.36,1126.56C1946.35,1131.6 1949.17,1139.03 1949.09,1146.94C1949.92,1174.57 1909.63,1199.31 1907.91,1200.35L1906.87,1200.98Z" style="fill:rgb(81,154,128);fill-rule:nonzero;"/>
                        </g>
                    </g>
                </g>
            </g>
        </g>
        <g transform="matrix(1,0,0,1,-184,-499)">
            <g id="Genobite-logo" serif:id="Genobite logo" transform="matrix(1.37934,0,0,1.37934,225.865,549.285)">
                <g transform="matrix(0.262487,0,0,0.262487,265.252,74.7689)">
                    <path d="M315.375,1216.79C318.113,1219.53 318.113,1223.96 315.375,1226.69L295.253,1246.83C292.509,1249.56 288.083,1249.56 285.344,1246.82L265.217,1226.69C262.479,1223.96 262.479,1219.53 265.217,1216.79L285.344,1196.66C288.083,1193.93 292.509,1193.93 295.253,1196.66L315.375,1216.79Z" style="fill:rgb(251,251,251);fill-opacity:0.92549;fill-rule:nonzero;"/>
                </g>
                <g transform="matrix(0.262487,0,0,0.262487,265.252,74.7689)">
                    <path d="M364.917,1167.25C367.645,1169.98 367.645,1174.42 364.917,1177.15L344.79,1197.29C342.057,1200.02 337.615,1200.02 334.876,1197.29L314.76,1177.15C312.021,1174.42 312.021,1169.98 314.76,1167.25L334.876,1147.12C337.615,1144.39 342.057,1144.39 344.79,1147.12L364.917,1167.25Z" style="fill:rgb(251,251,251);fill-opacity:0.92549;fill-rule:nonzero;"/>
                </g>
                <g transform="matrix(0.262487,0,0,0.262487,265.252,74.7689)">
                    <path d="M414.448,1117.71C417.187,1120.45 417.187,1124.88 414.448,1127.62L394.332,1147.74C391.594,1150.48 387.157,1150.48 384.418,1147.74L364.302,1127.62C361.563,1124.88 361.563,1120.45 364.302,1117.71L384.418,1097.59C387.157,1094.85 391.594,1094.85 394.332,1097.59L414.448,1117.71Z" style="fill:rgb(251,251,251);fill-opacity:0.92549;fill-rule:nonzero;"/>
                </g>
                <g transform="matrix(0.262487,0,0,0.262487,265.252,74.7689)">
                    <path d="M463.991,1068.17C466.73,1070.91 466.73,1075.35 463.991,1078.08L443.864,1098.21C441.13,1100.94 436.699,1100.94 433.961,1098.21L413.828,1078.08C411.095,1075.35 411.095,1070.91 413.828,1068.17L433.961,1048.05C436.694,1045.32 441.13,1045.32 443.864,1048.05L463.991,1068.17Z" style="fill:rgb(251,251,251);fill-opacity:0.92549;fill-rule:nonzero;"/>
                </g>
                <g transform="matrix(0.262487,0,0,0.262487,265.252,74.7689)">
                    <path d="M513.533,1018.64C516.271,1021.37 516.271,1025.81 513.533,1028.54L493.401,1048.67C490.667,1051.4 486.231,1051.4 483.497,1048.67L463.37,1028.54C460.642,1025.81 460.642,1021.37 463.37,1018.64L483.497,998.504C486.231,995.773 490.667,995.773 493.401,998.504L513.533,1018.64Z" style="fill:rgb(251,251,251);fill-opacity:0.92549;fill-rule:nonzero;"/>
                </g>
                <g transform="matrix(0.262487,0,0,0.262487,265.252,74.7689)">
                    <path d="M117.631,1019.05C120.37,1021.78 120.37,1026.22 117.631,1028.96L97.514,1049.08C94.776,1051.81 90.334,1051.81 87.601,1049.08L67.479,1028.96C64.74,1026.22 64.74,1021.78 67.479,1019.05L87.601,998.924C90.334,996.188 94.776,996.188 97.514,998.924L117.631,1019.05Z" style="fill:rgb(251,251,251);fill-opacity:0.92549;fill-rule:nonzero;"/>
                </g>
                <g transform="matrix(0.262487,0,0,0.262487,265.252,74.7689)">
                    <path d="M167.174,969.508C169.907,972.239 169.907,976.678 167.174,979.414L147.052,999.541C144.308,1002.28 139.877,1002.28 137.138,999.541L117.022,979.414C114.278,976.678 114.278,972.239 117.017,969.508L137.138,949.384C139.877,946.646 144.308,946.646 147.052,949.384L167.174,969.508Z" style="fill:rgb(251,251,251);fill-opacity:0.92549;fill-rule:nonzero;"/>
                </g>
                <g transform="matrix(0.262487,0,0,0.262487,265.252,74.7689)">
                    <path d="M216.71,919.966C219.449,922.705 219.449,927.144 216.71,929.88L196.588,950.004C193.844,952.73 189.414,952.73 186.68,950.004L166.553,929.875C163.809,927.144 163.809,922.705 166.553,919.966L186.68,899.85C189.414,897.111 193.844,897.111 196.588,899.85L216.71,919.966Z" style="fill:rgb(251,251,251);fill-opacity:0.92549;fill-rule:nonzero;"/>
                </g>
                <g transform="matrix(0.262487,0,0,0.262487,265.252,74.7689)">
                    <path d="M266.258,870.432C268.986,873.162 268.986,877.602 266.258,880.338L246.126,900.465C243.387,903.196 238.945,903.196 236.222,900.465L216.09,880.338C213.351,877.602 213.351,873.162 216.09,870.432L236.222,850.308C238.945,847.569 243.387,847.569 246.126,850.308L266.258,870.432Z" style="fill:rgb(251,251,251);fill-opacity:0.92549;fill-rule:nonzero;"/>
                </g>
                <g transform="matrix(0.262487,0,0,0.262487,265.252,74.7689)">
                    <path d="M315.79,820.89C318.518,823.629 318.518,828.068 315.785,830.798L295.663,850.923C292.929,853.661 288.488,853.661 285.749,850.923L265.633,830.798C262.894,828.068 262.894,823.629 265.633,820.89L285.749,800.765C288.488,798.036 292.929,798.036 295.663,800.765L315.79,820.89Z" style="fill:rgb(81,154,128);fill-opacity:0.92549;fill-rule:nonzero;"/>
                </g>
                <g transform="matrix(0.262487,0,0,0.262487,265.252,74.7689)">
                    <path d="M265.837,1167.25C268.576,1169.98 268.576,1174.42 265.837,1177.15L245.705,1197.29C242.977,1200.02 238.546,1200.02 235.807,1197.29L215.675,1177.15C212.936,1174.42 212.936,1169.98 215.675,1167.25L235.807,1147.12C238.546,1144.39 242.977,1144.39 245.705,1147.12L265.837,1167.25Z" style="fill:rgb(251,251,251);fill-opacity:0.92549;fill-rule:nonzero;"/>
                </g>
                <g transform="matrix(0.262487,0,0,0.262487,265.252,74.7689)">
                    <g opacity="0.699997">
                        <g>
                            <g opacity="0.399994">
                                <path d="M216.506,1018.84C219.244,1021.57 219.234,1026.01 216.506,1028.74L196.373,1048.87C193.646,1051.6 189.209,1051.6 186.475,1048.87L166.343,1028.74C163.61,1026.01 163.61,1021.57 166.343,1018.84L186.475,998.71C189.209,995.98 193.646,995.98 196.373,998.71L216.506,1018.84Z" style="fill:rgb(251,251,251);fill-opacity:0.92549;fill-rule:nonzero;"/>
                            </g>
                        </g>
                        <g>
                            <g opacity="0.399994">
                                <clipPath id="_clip1">
                                    <rect x="213.832" y="947.12" width="54.258" height="54.27"/>
                                </clipPath>
                                <g clip-path="url(#_clip1)">
                                    <path d="M266.048,969.301C268.771,972.039 268.771,976.47 266.048,979.207L245.916,999.334C243.177,1002.07 238.746,1002.07 236.007,999.334L215.886,979.207C213.147,976.47 213.147,972.039 215.886,969.301L236.007,949.176C238.746,946.438 243.177,946.438 245.916,949.176L266.048,969.301Z" style="fill:rgb(251,251,251);fill-opacity:0.92549;fill-rule:nonzero;"/>
                                </g>
                            </g>
                        </g>
                        <g>
                            <g opacity="0.399994">
                                <clipPath id="_clip2">
                                    <rect x="263.374" y="897.59" width="54.257" height="54.26"/>
                                </clipPath>
                                <g clip-path="url(#_clip2)">
                                    <path d="M315.585,919.759C318.313,922.498 318.313,926.937 315.585,929.668L295.458,949.792C292.719,952.53 288.283,952.53 285.544,949.792L265.428,929.668C262.689,926.937 262.689,922.498 265.428,919.759L285.544,899.634C288.283,896.904 292.719,896.904 295.458,899.634L315.585,919.759Z" style="fill:rgb(251,251,251);fill-opacity:0.92549;fill-rule:nonzero;"/>
                                </g>
                            </g>
                        </g>
                        <g>
                            <g opacity="0.399994">
                                <clipPath id="_clip3">
                                    <rect x="312.915" y="848.04" width="54.256" height="54.27"/>
                                </clipPath>
                                <g clip-path="url(#_clip3)">
                                    <path d="M365.117,870.225C367.856,872.964 367.856,877.395 365.117,880.133L344.99,900.258C342.262,902.989 337.82,902.989 335.086,900.258L314.965,880.133C312.232,877.395 312.232,872.964 314.965,870.225L335.086,850.093C337.82,847.362 342.262,847.362 344.99,850.093L365.117,870.225Z" style="fill:rgb(251,251,251);fill-opacity:0.92549;fill-rule:nonzero;"/>
                                </g>
                            </g>
                        </g>
                        <g>
                            <g opacity="0.399994">
                                <clipPath id="_clip4">
                                    <rect x="263.164" y="1095.53" width="54.265" height="54.257"/>
                                </clipPath>
                                <g clip-path="url(#_clip4)">
                                    <path d="M315.375,1117.71C318.113,1120.44 318.113,1124.88 315.375,1127.62L295.253,1147.74C292.509,1150.47 288.083,1150.47 285.344,1147.74L265.217,1127.62C262.479,1124.88 262.479,1120.44 265.217,1117.71L285.344,1097.59C288.083,1094.85 292.509,1094.85 295.253,1097.59L315.375,1117.71Z" style="fill:rgb(251,251,251);fill-opacity:0.92549;fill-rule:nonzero;"/>
                                </g>
                            </g>
                        </g>
                        <g>
                            <g opacity="0.399994">
                                <clipPath id="_clip5">
                                    <rect x="312.706" y="1046" width="54.257" height="54.256"/>
                                </clipPath>
                                <g clip-path="url(#_clip5)">
                                    <path d="M364.917,1068.17C367.645,1070.91 367.645,1075.35 364.917,1078.08L344.79,1098.21C342.057,1100.94 337.615,1100.94 334.876,1098.21L314.76,1078.08C312.021,1075.35 312.021,1070.91 314.76,1068.17L334.876,1048.05C337.615,1045.32 342.057,1045.32 344.79,1048.05L364.917,1068.17Z" style="fill:rgb(251,251,251);fill-opacity:0.92549;fill-rule:nonzero;"/>
                                </g>
                            </g>
                        </g>
                        <g>
                            <g opacity="0.399994">
                                <clipPath id="_clip6">
                                    <rect x="362.248" y="996.46" width="54.254" height="54.26"/>
                                </clipPath>
                                <g clip-path="url(#_clip6)">
                                    <path d="M414.448,1018.64C417.187,1021.37 417.187,1025.81 414.448,1028.54L394.332,1048.67C391.594,1051.4 387.157,1051.4 384.418,1048.67L364.302,1028.54C361.563,1025.81 361.563,1021.37 364.302,1018.64L384.418,998.504C387.157,995.773 391.594,995.773 394.332,998.504L414.448,1018.64Z" style="fill:rgb(251,251,251);fill-opacity:0.92549;fill-rule:nonzero;"/>
                                </g>
                            </g>
                        </g>
                        <g>
                            <g opacity="0.399994">
                                <clipPath id="_clip7">
                                    <rect x="213.832" y="1046.2" width="54.258" height="54.262"/>
                                </clipPath>
                                <g clip-path="url(#_clip7)">
                                    <path d="M266.048,1068.38C268.771,1071.11 268.771,1075.55 266.048,1078.28L245.916,1098.41C243.177,1101.15 238.746,1101.15 236.007,1098.41L215.886,1078.29C213.147,1075.55 213.147,1071.11 215.886,1068.38L236.007,1048.25C238.746,1045.51 243.177,1045.51 245.916,1048.25L266.048,1068.38Z" style="fill:rgb(251,251,251);fill-opacity:0.92549;fill-rule:nonzero;"/>
                                </g>
                            </g>
                        </g>
                    </g>
                </g>
                <g transform="matrix(0.262487,0,0,0.262487,265.252,74.7689)">
                    <path d="M166.963,1068.38C169.702,1071.11 169.702,1075.55 166.963,1078.28L146.841,1098.41C144.108,1101.15 139.671,1101.15 136.933,1098.41L116.801,1078.28C114.078,1075.55 114.078,1071.11 116.806,1068.38L136.933,1048.25C139.671,1045.51 144.108,1045.51 146.846,1048.25L166.963,1068.38Z" style="fill:rgb(251,251,251);fill-opacity:0.92549;fill-rule:nonzero;"/>
                </g>
                <g transform="matrix(0.262487,0,0,0.262487,265.252,74.7689)">
                    <path d="M216.506,1117.92C219.234,1120.65 219.234,1125.09 216.506,1127.83L196.379,1147.95C193.646,1150.68 189.204,1150.68 186.475,1147.95L166.348,1127.83C163.61,1125.09 163.61,1120.65 166.348,1117.92L186.475,1097.79C189.204,1095.06 193.646,1095.06 196.379,1097.79L216.506,1117.92Z" style="fill:rgb(251,251,251);fill-opacity:0.92549;fill-rule:nonzero;"/>
                </g>
                <g transform="matrix(0.262487,0,0,0.262487,265.252,74.7689)">
                    <path d="M315.585,1018.84C318.313,1021.57 318.313,1026.01 315.585,1028.74L295.458,1048.87C292.719,1051.6 288.283,1051.6 285.544,1048.87L265.428,1028.74C262.689,1026.01 262.689,1021.57 265.428,1018.84L285.544,998.716C288.283,995.98 292.719,995.98 295.458,998.716L315.585,1018.84Z" style="fill:rgb(81,154,128);fill-opacity:0.92549;fill-rule:nonzero;"/>
                </g>
                <g transform="matrix(0.262487,0,0,0.262487,265.252,74.7689)">
                    <path d="M365.117,969.301C367.856,972.039 367.856,976.47 365.117,979.207L344.99,999.334C342.257,1002.07 337.82,1002.07 335.086,999.334L314.965,979.207C312.232,976.47 312.232,972.039 314.965,969.301L335.086,949.176C337.82,946.438 342.262,946.438 344.99,949.176L365.117,969.301Z" style="fill:rgb(251,251,251);fill-opacity:0.92549;fill-rule:nonzero;"/>
                </g>
                <g transform="matrix(0.262487,0,0,0.262487,265.252,74.7689)">
                    <path d="M463.991,969.093C466.73,971.832 466.73,976.263 463.991,978.999L443.869,999.126C441.13,1001.86 436.699,1001.86 433.961,999.126L413.828,978.999C411.095,976.263 411.095,971.832 413.828,969.093L433.961,948.969C436.699,946.238 441.13,946.238 443.869,948.969L463.991,969.093Z" style="fill:rgb(251,251,251);fill-opacity:0.92549;fill-rule:nonzero;"/>
                </g>
                <g transform="matrix(0.262487,0,0,0.262487,265.252,74.7689)">
                    <path d="M414.659,919.759C417.398,922.498 417.398,926.937 414.659,929.668L394.527,949.792C391.805,952.53 387.368,952.53 384.624,949.792L364.502,929.668C361.763,926.937 361.763,922.498 364.502,919.759L384.624,899.634C387.368,896.904 391.805,896.904 394.532,899.634L414.659,919.759Z" style="fill:rgb(251,251,251);fill-opacity:0.92549;fill-rule:nonzero;"/>
                </g>
            </g>
        </g>
    </g>
</svg>
